STARTFONT 2.1
FONT --Roman-Regular-R-Medium--31-240-96-96-P-174-IBM-UGL
SIZE 24 96 96
FONTBOUNDINGBOX 33 35 0 -8
METRICSSET 2
STARTPROPERTIES 28
FONT_ASCENT 23
FONT_DESCENT 8
PIXEL_SIZE 31
RESOLUTION_X 96
RESOLUTION_Y 96
POINT_SIZE 240
FACE_NAME "Tms Rmn"
FOUNDRY ""
FAMILY_NAME "Roman"
WEIGHT_NAME "Regular"
RELATIVE_WEIGHT 50
SLANT "R"
SPACING "P"
SETWIDTH_NAME "Medium"
RELATIVE_SETWIDTH 50
ADD_STYLE_NAME ""
AVERAGE_WIDTH 174
UNDERLINE_POSITION 3
UNDERLINE_THICKNESS 2
SUPERSCRIPT_SIZE 21
SUBSCRIPT_SIZE 21
SUPERSCRIPT_X 0
SUPERSCRIPT_Y 13
SUBSCRIPT_X 0
SUBSCRIPT_Y 6
DEFAULT_CHAR 32
CHARSET_REGISTRY "IBM"
CHARSET_ENCODING "UGL"
ENDPROPERTIES
CHARS 330
STARTCHAR smileface
ENCODING 1
SWIDTH 750 0
DWIDTH 24 0
BBX 21 21 1 0
VVECTOR 11 27
SWIDTH1 0 -1094
DWIDTH1 0 -35
BITMAP 
01FC00
070700
0C0180
100040
200060
600030
430610
C78F18
830608
800008
800008
880088
8C0188
C70718
43FE10
61FC30
307060
1800C0
0C0180
070700
01FC00
ENDCHAR
STARTCHAR invsmileface
ENCODING 2
SWIDTH 750 0
DWIDTH 24 0
BBX 21 21 1 0
VVECTOR 11 27
SWIDTH1 0 -1094
DWIDTH1 0 -35
BITMAP 
01FC00
07FF00
0FFF80
1FFFC0
3FFFE0
7FFFF0
7CF9F0
F870F8
FCF9F8
FFFFF8
FFFFF8
F7FF78
F3FE78
F8F8F8
7800F0
7C01F0
3F07E0
1FFFC0
0FFF80
07FF00
01FC00
ENDCHAR
STARTCHAR heart
ENCODING 3
SWIDTH 719 0
DWIDTH 23 0
BBX 18 21 2 0
VVECTOR 11 27
SWIDTH1 0 -1094
DWIDTH1 0 -35
BITMAP 
3C0F00
7F3F80
FF3FC0
FFFFC0
FFFFC0
FFFFC0
FFFFC0
7FFF80
7FFF80
3FFF00
3FFF00
1FFE00
0FFC00
07F800
07F800
03F000
01E000
01E000
00C000
00C000
00C000
ENDCHAR
STARTCHAR diamond
ENCODING 4
SWIDTH 719 0
DWIDTH 23 0
BBX 16 21 3 0
VVECTOR 11 27
SWIDTH1 0 -1094
DWIDTH1 0 -35
BITMAP 
0180
0180
03C0
07E0
07E0
0FF0
1FF8
3FFC
3FFC
7FFE
FFFF
7FFE
3FFC
3FFC
1FF8
0FF0
07E0
07E0
03C0
0180
0180
ENDCHAR
STARTCHAR club
ENCODING 5
SWIDTH 719 0
DWIDTH 23 0
BBX 21 21 1 0
VVECTOR 12 27
SWIDTH1 0 -1094
DWIDTH1 0 -35
BITMAP 
00F800
01FC00
01FC00
03FE00
03FE00
03FE00
03FE00
3DFDE0
7FFFF0
FFFFF8
FFFFF8
FFFFF8
FFFFF8
FFAFF8
7FAFF0
3E23E0
002000
002000
007000
01FC00
1FFFC0
ENDCHAR
STARTCHAR spade
ENCODING 6
SWIDTH 719 0
DWIDTH 23 0
BBX 17 21 3 0
VVECTOR 12 27
SWIDTH1 0 -1094
DWIDTH1 0 -35
BITMAP 
008000
008000
01C000
01C000
03E000
07F000
0FF800
3FFE00
7FFF00
7FFF00
FFFF80
FFFF80
FFFF80
FFFF80
7EBF00
3C9E00
008000
008000
01C000
07F000
3FFE00
ENDCHAR
STARTCHAR bullet
ENCODING 7
SWIDTH 656 0
DWIDTH 21 0
BBX 9 9 6 6
VVECTOR 11 27
SWIDTH1 0 -1094
DWIDTH1 0 -35
BITMAP 
1C00
7F00
7F00
FF80
FF80
FF80
7F00
7F00
1C00
ENDCHAR
STARTCHAR invbullet
ENCODING 8
SWIDTH 656 0
DWIDTH 21 0
BBX 21 21 0 0
VVECTOR 11 27
SWIDTH1 0 -1094
DWIDTH1 0 -35
BITMAP 
FFFFF8
FFFFF8
FFFFF8
FFFFF8
FFFFF8
FFFFF8
FF8FF8
FE03F8
FE03F8
FC01F8
FC01F8
FC01F8
FE03F8
FE03F8
FF8FF8
FFFFF8
FFFFF8
FFFFF8
FFFFF8
FFFFF8
FFFFF8
ENDCHAR
STARTCHAR circle
ENCODING 9
SWIDTH 656 0
DWIDTH 21 0
BBX 17 17 2 2
VVECTOR 11 27
SWIDTH1 0 -1094
DWIDTH1 0 -35
BITMAP 
07F000
1C1C00
300600
600300
400100
C00180
800080
800080
800080
800080
800080
C00180
400100
600300
300600
1C1C00
07F000
ENDCHAR
STARTCHAR invcircle
ENCODING 10
SWIDTH 656 0
DWIDTH 21 0
BBX 21 21 0 0
VVECTOR 11 27
SWIDTH1 0 -1094
DWIDTH1 0 -35
BITMAP 
FFFFF8
FFFFF8
FFFFF8
FE03F8
F8F8F8
F3FE78
F7FF78
E7FF38
EFFFB8
EFFFB8
EFFFB8
EFFFB8
EFFFB8
E7FF38
F7FF78
F3FE78
F8F8F8
FE03F8
FFFFF8
FFFFF8
FFFFF8
ENDCHAR
STARTCHAR male
ENCODING 11
SWIDTH 562 0
DWIDTH 18 0
BBX 16 17 1 4
VVECTOR 9 27
SWIDTH1 0 -1094
DWIDTH1 0 -35
BITMAP 
007F
003F
000F
001F
0033
0063
1FC1
71C0
4040
C060
8020
8020
8020
C060
4040
71C0
1F00
ENDCHAR
STARTCHAR female
ENCODING 12
SWIDTH 562 0
DWIDTH 18 0
BBX 11 20 4 1
VVECTOR 10 27
SWIDTH1 0 -1094
DWIDTH1 0 -35
BITMAP 
1F00
71C0
4040
C060
8020
8020
8020
C060
4040
71C0
1F00
0400
0400
0400
0400
7FC0
0400
0400
0400
0400
ENDCHAR
STARTCHAR musicalnote
ENCODING 13
SWIDTH 469 0
DWIDTH 15 0
BBX 11 21 2 0
VVECTOR 8 27
SWIDTH1 0 -1094
DWIDTH1 0 -35
BITMAP 
0400
0400
0600
0700
0700
0780
05C0
05C0
04C0
04E0
0460
0460
0460
0460
0440
0440
3C80
7C00
FC00
F800
7000
ENDCHAR
STARTCHAR musicalnotedbl
ENCODING 14
SWIDTH 688 0
DWIDTH 22 0
BBX 19 22 1 -1
VVECTOR 10 27
SWIDTH1 0 -1094
DWIDTH1 0 -35
BITMAP 
0000E0
000FE0
00FFA0
03FC20
03C020
0203E0
023FE0
03FE20
03E020
030020
020020
020020
020020
020020
020020
0203E0
0207E0
3E0FE0
7E0FC0
FE0780
FC0000
780000
ENDCHAR
STARTCHAR sun
ENCODING 15
SWIDTH 594 0
DWIDTH 19 0
BBX 18 18 1 2
VVECTOR 11 27
SWIDTH1 0 -1094
DWIDTH1 0 -35
BITMAP 
00C000
10C200
38C700
1DEE00
0E1C00
080400
180600
100200
F003C0
F003C0
100200
180600
080400
0E1C00
1DEE00
38C700
10C200
00C000
ENDCHAR
STARTCHAR triagrt
ENCODING 16
SWIDTH 719 0
DWIDTH 23 0
BBX 13 14 6 4
VVECTOR 14 27
SWIDTH1 0 -1094
DWIDTH1 0 -35
BITMAP 
8000
E000
F800
FE00
FF80
FFE0
FFF8
FFF8
FFE0
FF80
FE00
F800
E000
8000
ENDCHAR
STARTCHAR triaglf
ENCODING 17
SWIDTH 719 0
DWIDTH 23 0
BBX 13 14 5 4
VVECTOR 12 27
SWIDTH1 0 -1094
DWIDTH1 0 -35
BITMAP 
0008
0038
00F8
03F8
0FF8
3FF8
FFF8
FFF8
3FF8
0FF8
03F8
00F8
0038
0008
ENDCHAR
STARTCHAR arrowupdn
ENCODING 18
SWIDTH 438 0
DWIDTH 14 0
BBX 10 21 2 0
VVECTOR 7 27
SWIDTH1 0 -1094
DWIDTH1 0 -35
BITMAP 
0C00
0C00
1E00
3F00
7F80
CCC0
0C00
0C00
0C00
0C00
0C00
0C00
0C00
0C00
0C00
CCC0
7F80
3F00
1E00
0C00
0C00
ENDCHAR
STARTCHAR exclamdbl
ENCODING 19
SWIDTH 594 0
DWIDTH 19 0
BBX 12 21 4 0
VVECTOR 11 27
SWIDTH1 0 -1094
DWIDTH1 0 -35
BITMAP 
6060
F0F0
F0F0
F0F0
F0F0
F0F0
F0F0
F0F0
6060
6060
6060
6060
6060
6060
6060
0000
0000
6060
F0F0
F0F0
6060
ENDCHAR
STARTCHAR char14
ENCODING 20
SWIDTH 438 0
DWIDTH 14 0
BBX 12 27 1 -6
VVECTOR 7 27
SWIDTH1 0 -1094
DWIDTH1 0 -35
BITMAP 
1FF0
7CC0
7CC0
FCC0
FCC0
FCC0
FCC0
FCC0
7CC0
7CC0
1CC0
0CC0
0CC0
0CC0
0CC0
0CC0
0CC0
0CC0
0CC0
0CC0
0CC0
0CC0
0CC0
0CC0
0CC0
0CC0
0CC0
ENDCHAR
STARTCHAR char15
ENCODING 21
SWIDTH 500 0
DWIDTH 16 0
BBX 12 26 2 -3
VVECTOR 8 27
SWIDTH1 0 -1094
DWIDTH1 0 -35
BITMAP 
0F80
38E0
30E0
6040
6000
7000
3800
1E00
3F00
67C0
41E0
C0E0
E070
E070
7030
7820
3E60
0FC0
0780
01C0
00E0
0060
2060
70C0
71C0
1F00
ENDCHAR
STARTCHAR filledrect
ENCODING 22
SWIDTH 656 0
DWIDTH 21 0
BBX 19 11 1 5
VVECTOR 11 27
SWIDTH1 0 -1094
DWIDTH1 0 -35
BITMAP 
FFFFE0
FFFFE0
FFFFE0
FFFFE0
FFFFE0
FFFFE0
FFFFE0
FFFFE0
FFFFE0
FFFFE0
FFFFE0
ENDCHAR
STARTCHAR arrowupdnbse
ENCODING 23
SWIDTH 438 0
DWIDTH 14 0
BBX 10 26 2 -5
VVECTOR 7 27
SWIDTH1 0 -1094
DWIDTH1 0 -35
BITMAP 
0C00
0C00
1E00
3F00
7F80
CCC0
0C00
0C00
0C00
0C00
0C00
0C00
0C00
0C00
0C00
CCC0
7F80
3F00
1E00
0C00
0C00
0000
0000
0000
FFC0
FFC0
ENDCHAR
STARTCHAR arrowup
ENCODING 24
SWIDTH 438 0
DWIDTH 14 0
BBX 10 21 2 0
VVECTOR 7 27
SWIDTH1 0 -1094
DWIDTH1 0 -35
BITMAP 
0C00
0C00
1E00
3F00
7F80
CCC0
0C00
0C00
0C00
0C00
0C00
0C00
0C00
0C00
0C00
0C00
0C00
0C00
0C00
0C00
0C00
ENDCHAR
STARTCHAR arrowdown
ENCODING 25
SWIDTH 438 0
DWIDTH 14 0
BBX 10 21 2 0
VVECTOR 7 27
SWIDTH1 0 -1094
DWIDTH1 0 -35
BITMAP 
0C00
0C00
0C00
0C00
0C00
0C00
0C00
0C00
0C00
0C00
0C00
0C00
0C00
0C00
0C00
CCC0
7F80
3F00
1E00
0C00
0C00
ENDCHAR
STARTCHAR arrowright
ENCODING 26
SWIDTH 812 0
DWIDTH 26 0
BBX 23 12 2 4
VVECTOR 14 27
SWIDTH1 0 -1094
DWIDTH1 0 -35
BITMAP 
000080
0000C0
000060
000070
000038
FFFFFE
FFFFFE
000038
000070
000060
0000C0
000080
ENDCHAR
STARTCHAR arrowleft
ENCODING 27
SWIDTH 812 0
DWIDTH 26 0
BBX 23 12 1 4
VVECTOR 12 27
SWIDTH1 0 -1094
DWIDTH1 0 -35
BITMAP 
020000
060000
0C0000
1C0000
380000
FFFFFE
FFFFFE
380000
1C0000
0C0000
060000
020000
ENDCHAR
STARTCHAR orthogonal
ENCODING 28
SWIDTH 562 0
DWIDTH 18 0
BBX 15 11 2 0
VVECTOR 10 27
SWIDTH1 0 -1094
DWIDTH1 0 -35
BITMAP 
C000
C000
C000
C000
C000
C000
C000
C000
C000
FFFE
FFFE
ENDCHAR
STARTCHAR arrowboth
ENCODING 29
SWIDTH 750 0
DWIDTH 24 0
BBX 24 12 0 4
VVECTOR 12 27
SWIDTH1 0 -1094
DWIDTH1 0 -35
BITMAP 
020040
060060
0C0030
1C0038
38001C
FFFFFF
FFFFFF
38001C
1C0038
0C0030
060060
020040
ENDCHAR
STARTCHAR triagup
ENCODING 30
SWIDTH 719 0
DWIDTH 23 0
BBX 14 14 4 4
VVECTOR 11 27
SWIDTH1 0 -1094
DWIDTH1 0 -35
BITMAP 
0300
0300
0780
0780
0FC0
0FC0
1FE0
1FE0
3FF0
3FF0
7FF8
7FF8
FFFC
FFFC
ENDCHAR
STARTCHAR triagdn
ENCODING 31
SWIDTH 719 0
DWIDTH 23 0
BBX 14 14 4 4
VVECTOR 11 27
SWIDTH1 0 -1094
DWIDTH1 0 -35
BITMAP 
FFFC
FFFC
7FF8
7FF8
3FF0
3FF0
1FE0
1FE0
0FC0
0FC0
0780
0780
0300
0300
ENDCHAR
STARTCHAR space
ENCODING 32
SWIDTH 250 0
DWIDTH 8 0
BBX 0 0 8 27
VVECTOR 12 27
SWIDTH1 0 -1094
DWIDTH1 0 -35
BITMAP 
ENDCHAR
STARTCHAR exclam
ENCODING 33
SWIDTH 281 0
DWIDTH 9 0
BBX 3 23 3 0
VVECTOR 5 27
SWIDTH1 0 -1094
DWIDTH1 0 -35
BITMAP 
40
E0
E0
E0
E0
E0
E0
E0
E0
E0
40
40
40
40
40
00
00
00
00
40
E0
E0
40
ENDCHAR
STARTCHAR quotedbl
ENCODING 34
SWIDTH 375 0
DWIDTH 12 0
BBX 8 7 2 16
VVECTOR 6 27
SWIDTH1 0 -1094
DWIDTH1 0 -35
BITMAP 
42
E7
E7
E7
42
42
42
ENDCHAR
STARTCHAR numbersign
ENCODING 35
SWIDTH 500 0
DWIDTH 16 0
BBX 16 22 0 0
VVECTOR 8 27
SWIDTH1 0 -1094
DWIDTH1 0 -35
BITMAP 
0618
0618
0618
0618
0618
0618
7FFF
7FFF
0C30
0C30
0C30
0C30
0C30
0C30
FFFE
FFFE
1860
1860
1860
1860
1860
1860
ENDCHAR
STARTCHAR dollar
ENCODING 36
SWIDTH 500 0
DWIDTH 16 0
BBX 14 28 1 -3
VVECTOR 8 27
SWIDTH1 0 -1094
DWIDTH1 0 -35
BITMAP 
0300
0300
0300
0FC8
3B78
7318
7308
F308
F300
F300
7B00
7F00
3F80
1FC0
07F0
03F8
03F8
037C
033C
833C
833C
C338
E338
F370
9FC0
0300
0300
0300
ENDCHAR
STARTCHAR percent
ENCODING 37
SWIDTH 875 0
DWIDTH 28 0
BBX 26 23 1 0
VVECTOR 14 27
SWIDTH1 0 -1094
DWIDTH1 0 -35
BITMAP 
07C03800
1CF0F000
383FF000
703F6000
7010C000
E010C000
E0318000
E0230000
E0630000
70C60000
7B8C0000
1E0C1E00
00187380
0030E080
0031C0C0
0061C040
00C38040
00C380C0
01838080
03038180
0301C300
0601EE00
0C007800
ENDCHAR
STARTCHAR ampersand
ENCODING 38
SWIDTH 781 0
DWIDTH 25 0
BBX 20 23 3 0
VVECTOR 14 27
SWIDTH1 0 -1094
DWIDTH1 0 -35
BITMAP 
038000
0EE000
0C6000
183000
183000
183000
1C6000
0EC000
0F8000
0F8000
1F87F0
39C1C0
71C180
60E180
E07300
E07300
E03E00
E03E00
F01C00
701E10
7C3F30
3FE7E0
0F83C0
ENDCHAR
STARTCHAR quotesingle
ENCODING 39
SWIDTH 281 0
DWIDTH 9 0
BBX 3 7 3 16
VVECTOR 5 27
SWIDTH1 0 -1094
DWIDTH1 0 -35
BITMAP 
40
E0
E0
E0
40
40
40
ENDCHAR
STARTCHAR parenleft
ENCODING 40
SWIDTH 344 0
DWIDTH 11 0
BBX 8 29 2 -7
VVECTOR 7 27
SWIDTH1 0 -1094
DWIDTH1 0 -35
BITMAP 
03
06
0C
0C
18
18
30
30
70
60
60
E0
E0
E0
E0
E0
E0
E0
60
60
70
30
30
18
18
0C
0C
06
03
ENDCHAR
STARTCHAR parenright
ENCODING 41
SWIDTH 344 0
DWIDTH 11 0
BBX 8 29 1 -7
VVECTOR 5 27
SWIDTH1 0 -1094
DWIDTH1 0 -35
BITMAP 
C0
60
30
30
18
18
0C
0C
0E
06
06
07
07
07
07
07
07
07
06
06
0E
0C
0C
18
18
30
30
60
C0
ENDCHAR
STARTCHAR asterisk
ENCODING 42
SWIDTH 500 0
DWIDTH 16 0
BBX 11 14 2 11
VVECTOR 7 27
SWIDTH1 0 -1094
DWIDTH1 0 -35
BITMAP 
0400
0E00
0E00
EEE0
E4E0
F5E0
0E00
0E00
F5E0
E4E0
EEE0
0E00
0E00
0400
ENDCHAR
STARTCHAR plus
ENCODING 43
SWIDTH 562 0
DWIDTH 18 0
BBX 16 16 1 1
VVECTOR 9 27
SWIDTH1 0 -1094
DWIDTH1 0 -35
BITMAP 
0180
0180
0180
0180
0180
0180
0180
FFFF
FFFF
0180
0180
0180
0180
0180
0180
0180
ENDCHAR
STARTCHAR comma
ENCODING 44
SWIDTH 250 0
DWIDTH 8 0
BBX 4 7 2 -3
VVECTOR 4 27
SWIDTH1 0 -1094
DWIDTH1 0 -35
BITMAP 
60
F0
F0
70
30
20
C0
ENDCHAR
STARTCHAR hyphen
ENCODING 45
SWIDTH 313 0
DWIDTH 10 0
BBX 8 2 1 8
VVECTOR 5 27
SWIDTH1 0 -1094
DWIDTH1 0 -35
BITMAP 
FF
FF
ENDCHAR
STARTCHAR period
ENCODING 46
SWIDTH 250 0
DWIDTH 8 0
BBX 4 4 2 0
VVECTOR 4 27
SWIDTH1 0 -1094
DWIDTH1 0 -35
BITMAP 
60
F0
F0
60
ENDCHAR
STARTCHAR slash
ENCODING 47
SWIDTH 250 0
DWIDTH 8 0
BBX 8 24 0 -1
VVECTOR 4 27
SWIDTH1 0 -1094
DWIDTH1 0 -35
BITMAP 
03
03
03
06
06
06
0C
0C
0C
18
18
18
18
30
30
30
60
60
60
60
C0
C0
C0
C0
ENDCHAR
STARTCHAR zero
ENCODING 48
SWIDTH 500 0
DWIDTH 16 0
BBX 14 22 1 0
VVECTOR 8 27
SWIDTH1 0 -1094
DWIDTH1 0 -35
BITMAP 
0780
1CE0
3030
7038
6018
E01C
E01C
E01C
E01C
E01C
E01C
E01C
E01C
E01C
E01C
E01C
E01C
6018
7038
3030
1CE0
0780
ENDCHAR
STARTCHAR one
ENCODING 49
SWIDTH 500 0
DWIDTH 16 0
BBX 8 22 4 0
VVECTOR 8 27
SWIDTH1 0 -1094
DWIDTH1 0 -35
BITMAP 
08
18
38
78
D8
18
18
18
18
18
18
18
18
18
18
18
18
18
18
18
3C
FF
ENDCHAR
STARTCHAR two
ENCODING 50
SWIDTH 500 0
DWIDTH 16 0
BBX 14 22 1 0
VVECTOR 8 27
SWIDTH1 0 -1094
DWIDTH1 0 -35
BITMAP 
0F80
3FE0
61F0
C0F0
8078
0078
0078
0078
0078
0070
0070
00E0
00C0
0180
0300
0600
0C00
1800
3004
7FFC
FFF8
FFF8
ENDCHAR
STARTCHAR three
ENCODING 51
SWIDTH 500 0
DWIDTH 16 0
BBX 13 22 2 0
VVECTOR 9 27
SWIDTH1 0 -1094
DWIDTH1 0 -35
BITMAP 
0F80
3FE0
61E0
40F0
0070
0070
0060
00E0
00C0
0380
1FE0
03F0
00F0
0078
0038
0038
0038
0038
0030
E070
F0E0
3F80
ENDCHAR
STARTCHAR four
ENCODING 52
SWIDTH 500 0
DWIDTH 16 0
BBX 14 22 1 0
VVECTOR 8 27
SWIDTH1 0 -1094
DWIDTH1 0 -35
BITMAP 
0070
0070
00F0
01F0
0370
0370
0670
0C70
1870
1870
3070
6070
C070
FFFC
FFFC
FFFC
0070
0070
0070
0070
0070
0070
ENDCHAR
STARTCHAR five
ENCODING 53
SWIDTH 500 0
DWIDTH 16 0
BBX 13 22 1 0
VVECTOR 7 27
SWIDTH1 0 -1094
DWIDTH1 0 -35
BITMAP 
0FF0
0FF0
0FE0
1000
1000
2000
3800
7F00
7FC0
03E0
00F0
0070
0038
0038
0018
0018
0018
6030
F030
78E0
3FC0
0F00
ENDCHAR
STARTCHAR six
ENCODING 54
SWIDTH 500 0
DWIDTH 16 0
BBX 14 22 1 0
VVECTOR 8 27
SWIDTH1 0 -1094
DWIDTH1 0 -35
BITMAP 
01E0
0700
0C00
1800
3800
3000
7000
6000
E3C0
EFF0
F878
F03C
E01C
E01C
E01C
E01C
E01C
7038
7038
3870
1FE0
0780
ENDCHAR
STARTCHAR seven
ENCODING 55
SWIDTH 500 0
DWIDTH 16 0
BBX 14 22 1 0
VVECTOR 8 27
SWIDTH1 0 -1094
DWIDTH1 0 -35
BITMAP 
7FFC
7FF8
FFF8
8018
0030
0030
0030
0060
0060
0060
00C0
00C0
00C0
0180
0180
0180
0300
0300
0300
0600
0600
0600
ENDCHAR
STARTCHAR eight
ENCODING 56
SWIDTH 500 0
DWIDTH 16 0
BBX 14 22 1 0
VVECTOR 8 27
SWIDTH1 0 -1094
DWIDTH1 0 -35
BITMAP 
0FC0
3870
3030
7018
7018
7018
3818
3C30
1F60
0FE0
1FF0
31F8
6078
603C
C01C
C01C
C00C
C00C
4008
6018
3030
0FC0
ENDCHAR
STARTCHAR nine
ENCODING 57
SWIDTH 500 0
DWIDTH 16 0
BBX 14 22 1 0
VVECTOR 8 27
SWIDTH1 0 -1094
DWIDTH1 0 -35
BITMAP 
0780
1FE0
3870
7038
6018
E01C
E01C
E01C
E01C
E01C
F01C
783C
3FDC
0F1C
0018
0038
0030
0070
0060
00C0
0380
1E00
ENDCHAR
STARTCHAR colon
ENCODING 58
SWIDTH 250 0
DWIDTH 8 0
BBX 4 15 2 0
VVECTOR 4 27
SWIDTH1 0 -1094
DWIDTH1 0 -35
BITMAP 
60
F0
F0
60
00
00
00
00
00
00
00
60
F0
F0
60
ENDCHAR
STARTCHAR semicolon
ENCODING 59
SWIDTH 250 0
DWIDTH 8 0
BBX 4 18 2 -3
VVECTOR 4 27
SWIDTH1 0 -1094
DWIDTH1 0 -35
BITMAP 
60
F0
F0
60
00
00
00
00
00
00
00
00
60
F0
70
30
20
C0
ENDCHAR
STARTCHAR less
ENCODING 60
SWIDTH 562 0
DWIDTH 18 0
BBX 16 16 1 2
VVECTOR 9 27
SWIDTH1 0 -1094
DWIDTH1 0 -35
BITMAP 
0003
000F
003C
00F8
03C0
0F00
3C00
F000
F000
3C00
0F00
03C0
00F0
003C
000F
0003
ENDCHAR
STARTCHAR equal
ENCODING 61
SWIDTH 562 0
DWIDTH 18 0
BBX 16 8 1 7
VVECTOR 9 27
SWIDTH1 0 -1094
DWIDTH1 0 -35
BITMAP 
FFFF
FFFF
0000
0000
0000
0000
FFFF
FFFF
ENDCHAR
STARTCHAR greater
ENCODING 62
SWIDTH 562 0
DWIDTH 18 0
BBX 16 16 1 2
VVECTOR 9 27
SWIDTH1 0 -1094
DWIDTH1 0 -35
BITMAP 
C000
F000
3C00
0F00
03C0
00F0
003C
000F
000F
003C
00F0
03C0
0F00
3C00
F000
C000
ENDCHAR
STARTCHAR question
ENCODING 63
SWIDTH 438 0
DWIDTH 14 0
BBX 11 23 1 0
VVECTOR 6 27
SWIDTH1 0 -1094
DWIDTH1 0 -35
BITMAP 
3F00
61C0
C1C0
C0E0
E0E0
E0E0
40C0
01C0
0180
0300
0300
0200
0600
0400
0400
0400
0000
0000
0000
0C00
1E00
1E00
0C00
ENDCHAR
STARTCHAR at
ENCODING 64
SWIDTH 906 0
DWIDTH 29 0
BBX 27 26 1 -4
VVECTOR 15 27
SWIDTH1 0 -1094
DWIDTH1 0 -35
BITMAP 
007FC000
01C07000
07001C00
0E000600
1C000300
38000180
38000180
700730C0
701CB0C0
703070C0
E0606060
E0606060
E0C06060
E0C0C060
E0C0C060
E0C0C0C0
7061E0C0
70737380
701C1E00
38000000
38000000
1C000000
0E000000
07000C00
01C03000
007FC000
ENDCHAR
STARTCHAR A
ENCODING 65
SWIDTH 688 0
DWIDTH 22 0
BBX 22 22 0 0
VVECTOR 11 27
SWIDTH1 0 -1094
DWIDTH1 0 -35
BITMAP 
002000
002000
003000
007000
007800
00F800
00F800
00FC00
01BC00
019E00
031E00
030F00
030F00
060F00
060780
0FFF80
0C03C0
0C03C0
1801E0
1801E0
3803F0
FE0FFC
ENDCHAR
STARTCHAR B
ENCODING 66
SWIDTH 656 0
DWIDTH 21 0
BBX 19 22 1 0
VVECTOR 11 27
SWIDTH1 0 -1094
DWIDTH1 0 -35
BITMAP 
FFFC00
3E0F00
1C0780
1C0380
1C03C0
1C03C0
1C03C0
1C0380
1C0780
1C0F00
1FFE00
1C0F00
1C0380
1C03C0
1C01C0
1C01E0
1C01E0
1C01E0
1C03C0
1C03C0
3E0F80
FFFE00
ENDCHAR
STARTCHAR C
ENCODING 67
SWIDTH 656 0
DWIDTH 21 0
BBX 19 22 1 0
VVECTOR 11 27
SWIDTH1 0 -1094
DWIDTH1 0 -35
BITMAP 
01F880
078780
1E0180
3C0080
380000
780000
700000
F00000
F00000
F00000
F00000
F00000
F00000
F00000
F00000
780000
780000
3C0020
3E0040
1F8080
07FF00
01FC00
ENDCHAR
STARTCHAR D
ENCODING 68
SWIDTH 719 0
DWIDTH 23 0
BBX 20 22 1 0
VVECTOR 11 27
SWIDTH1 0 -1094
DWIDTH1 0 -35
BITMAP 
FFFC00
3E1F00
1C0780
1C03C0
1C01C0
1C01E0
1C00E0
1C00F0
1C00F0
1C00F0
1C00F0
1C00F0
1C00F0
1C00F0
1C00F0
1C00E0
1C01E0
1C01C0
1C03C0
1C0780
3E1F00
FFFC00
ENDCHAR
STARTCHAR E
ENCODING 69
SWIDTH 625 0
DWIDTH 20 0
BBX 18 22 1 0
VVECTOR 10 27
SWIDTH1 0 -1094
DWIDTH1 0 -35
BITMAP 
FFFF00
3E0300
1C0100
1C0100
1C0000
1C0000
1C0000
1C0400
1C0400
1C0C00
1FFC00
1C0C00
1C0400
1C0400
1C0000
1C0000
1C0000
1C0000
1C0040
1C00C0
3E0380
FFFF80
ENDCHAR
STARTCHAR F
ENCODING 70
SWIDTH 562 0
DWIDTH 18 0
BBX 16 22 1 0
VVECTOR 9 27
SWIDTH1 0 -1094
DWIDTH1 0 -35
BITMAP 
FFFF
3E03
1C01
1C01
1C00
1C00
1C00
1C04
1C04
1C0C
1FFC
1C0C
1C04
1C04
1C00
1C00
1C00
1C00
1C00
1C00
3E00
FF80
ENDCHAR
STARTCHAR G
ENCODING 71
SWIDTH 719 0
DWIDTH 23 0
BBX 21 22 2 0
VVECTOR 14 27
SWIDTH1 0 -1094
DWIDTH1 0 -35
BITMAP 
01F880
078780
1E0180
3C0080
380000
780000
700000
F00000
F00000
F00000
F00000
F00FF8
F003E0
F001C0
F001C0
7801C0
7801C0
3C01C0
3E01C0
1F8180
07FF00
01FC00
ENDCHAR
STARTCHAR H
ENCODING 72
SWIDTH 719 0
DWIDTH 23 0
BBX 21 22 1 0
VVECTOR 12 27
SWIDTH1 0 -1094
DWIDTH1 0 -35
BITMAP 
FF8FF8
3E03E0
1C01C0
1C01C0
1C01C0
1C01C0
1C01C0
1C01C0
1C01C0
1C01C0
1FFFC0
1C01C0
1C01C0
1C01C0
1C01C0
1C01C0
1C01C0
1C01C0
1C01C0
1C01C0
3E03E0
FF8FF8
ENDCHAR
STARTCHAR I
ENCODING 73
SWIDTH 344 0
DWIDTH 11 0
BBX 9 22 1 0
VVECTOR 6 27
SWIDTH1 0 -1094
DWIDTH1 0 -35
BITMAP 
FF80
3E00
1C00
1C00
1C00
1C00
1C00
1C00
1C00
1C00
1C00
1C00
1C00
1C00
1C00
1C00
1C00
1C00
1C00
1C00
3E00
FF80
ENDCHAR
STARTCHAR J
ENCODING 74
SWIDTH 406 0
DWIDTH 13 0
BBX 12 22 0 0
VVECTOR 6 27
SWIDTH1 0 -1094
DWIDTH1 0 -35
BITMAP 
1FF0
07C0
0380
0380
0380
0380
0380
0380
0380
0380
0380
0380
0380
0380
0380
0380
0380
4380
E380
E380
7300
1E00
ENDCHAR
STARTCHAR K
ENCODING 75
SWIDTH 688 0
DWIDTH 22 0
BBX 21 22 1 0
VVECTOR 12 27
SWIDTH1 0 -1094
DWIDTH1 0 -35
BITMAP 
FF8FE0
3E0380
1C0300
1C0600
1C0C00
1C1800
1C3000
1C6000
1CC000
1DE000
1F7000
1E7000
1C3800
1C1C00
1C1C00
1C0E00
1C0700
1C0700
1C0380
1C01C0
3E03E0
FF8FF8
ENDCHAR
STARTCHAR L
ENCODING 76
SWIDTH 625 0
DWIDTH 20 0
BBX 18 22 1 0
VVECTOR 10 27
SWIDTH1 0 -1094
DWIDTH1 0 -35
BITMAP 
FF8000
3E0000
1C0000
1C0000
1C0000
1C0000
1C0000
1C0000
1C0000
1C0000
1C0000
1C0000
1C0000
1C0000
1C0000
1C0000
1C0000
1C0000
1C0040
1C00C0
3E0380
FFFF80
ENDCHAR
STARTCHAR M
ENCODING 77
SWIDTH 875 0
DWIDTH 28 0
BBX 26 22 1 0
VVECTOR 14 27
SWIDTH1 0 -1094
DWIDTH1 0 -35
BITMAP 
FE000FC0
3E000F00
1E001E00
1F001E00
17001E00
17803E00
13803E00
13804E00
13C04E00
11C04E00
11E08E00
10E08E00
10E10E00
10F10E00
10710E00
107A0E00
103A0E00
103C0E00
101C0E00
101C0E00
38081F00
FE087FC0
ENDCHAR
STARTCHAR N
ENCODING 78
SWIDTH 719 0
DWIDTH 23 0
BBX 21 22 1 0
VVECTOR 12 27
SWIDTH1 0 -1094
DWIDTH1 0 -35
BITMAP 
F803F8
3C00E0
1E0040
1E0040
1F0040
178040
13C040
13C040
11E040
10F040
107840
107840
103C40
101E40
100F40
100F40
1007C0
1003C0
1001C0
1001C0
3800C0
FE0040
ENDCHAR
STARTCHAR O
ENCODING 79
SWIDTH 719 0
DWIDTH 23 0
BBX 19 22 2 0
VVECTOR 12 27
SWIDTH1 0 -1094
DWIDTH1 0 -35
BITMAP 
03F800
0F1E00
1C0700
380380
380380
7001C0
7001C0
F001E0
F001E0
F001E0
F001E0
F001E0
F001E0
F001E0
F001E0
7001C0
7001C0
380380
380380
1C0700
0F1E00
03F800
ENDCHAR
STARTCHAR P
ENCODING 80
SWIDTH 562 0
DWIDTH 18 0
BBX 17 22 1 0
VVECTOR 10 27
SWIDTH1 0 -1094
DWIDTH1 0 -35
BITMAP 
FFFC00
3E1F00
1C0F00
1C0780
1C0780
1C0780
1C0780
1C0780
1C0F00
1C1F00
1FFC00
1C0000
1C0000
1C0000
1C0000
1C0000
1C0000
1C0000
1C0000
1C0000
3E0000
FF8000
ENDCHAR
STARTCHAR Q
ENCODING 81
SWIDTH 719 0
DWIDTH 23 0
BBX 19 27 2 -5
VVECTOR 12 27
SWIDTH1 0 -1094
DWIDTH1 0 -35
BITMAP 
03F800
0F1E00
1C0700
380380
380380
7001C0
7001C0
F001E0
F001E0
F001E0
F001E0
F001E0
F001E0
F001E0
F001E0
7001C0
7001C0
380380
380380
1C0700
0F1E00
03F800
00F000
007000
007800
003C00
000F80
ENDCHAR
STARTCHAR R
ENCODING 82
SWIDTH 656 0
DWIDTH 21 0
BBX 20 22 1 0
VVECTOR 12 27
SWIDTH1 0 -1094
DWIDTH1 0 -35
BITMAP 
FFFC00
3E1F00
1C0F00
1C0780
1C0780
1C0780
1C0780
1C0780
1C0F00
1C1F00
1FFC00
1CF000
1C7000
1C3800
1C3C00
1C1C00
1C0E00
1C0F00
1C0700
1C0380
3E03C0
FF81F0
ENDCHAR
STARTCHAR S
ENCODING 83
SWIDTH 562 0
DWIDTH 18 0
BBX 14 22 2 0
VVECTOR 9 27
SWIDTH1 0 -1094
DWIDTH1 0 -35
BITMAP 
0FC8
3878
7018
7008
F008
F000
F000
7800
7E00
3F80
1FC0
07F0
03F8
00F8
007C
003C
803C
803C
C038
E038
F070
9FC0
ENDCHAR
STARTCHAR T
ENCODING 84
SWIDTH 594 0
DWIDTH 19 0
BBX 19 22 0 0
VVECTOR 10 27
SWIDTH1 0 -1094
DWIDTH1 0 -35
BITMAP 
FFFFE0
C0E060
80E020
80E020
00E000
00E000
00E000
00E000
00E000
00E000
00E000
00E000
00E000
00E000
00E000
00E000
00E000
00E000
00E000
00E000
01F000
07FC00
ENDCHAR
STARTCHAR U
ENCODING 85
SWIDTH 719 0
DWIDTH 23 0
BBX 21 22 1 0
VVECTOR 12 27
SWIDTH1 0 -1094
DWIDTH1 0 -35
BITMAP 
FF83F8
3E00E0
1C0040
1C0040
1C0040
1C0040
1C0040
1C0040
1C0040
1C0040
1C0040
1C0040
1C0040
1C0040
1C0040
1C0040
1C0040
1E0040
0E0080
0F0080
07C300
01FC00
ENDCHAR
STARTCHAR V
ENCODING 86
SWIDTH 688 0
DWIDTH 22 0
BBX 22 22 0 0
VVECTOR 11 27
SWIDTH1 0 -1094
DWIDTH1 0 -35
BITMAP 
FF80FC
3E0030
1C0030
1E0020
0E0060
0F0040
070040
0700C0
078080
038180
03C100
01C300
01E200
00E200
00F600
00F400
007C00
007800
003800
003000
001000
001000
ENDCHAR
STARTCHAR W
ENCODING 87
SWIDTH 1031 0
DWIDTH 33 0
BBX 33 22 0 0
VVECTOR 17 27
SWIDTH1 0 -1094
DWIDTH1 0 -35
BITMAP 
FF8FF87F80
3F07E01E00
1E03C00C00
0E01C00800
0F01E01800
0700E01000
0781F01000
0781F03000
0381702000
03C1782000
01C3386000
01E23C4000
00E21C4000
00E61CC000
00F41E8000
00740E8000
007C0F8000
0038070000
0038070000
0010020000
0010020000
0010020000
ENDCHAR
STARTCHAR X
ENCODING 88
SWIDTH 719 0
DWIDTH 23 0
BBX 23 22 0 0
VVECTOR 12 27
SWIDTH1 0 -1094
DWIDTH1 0 -35
BITMAP 
7F81F8
1E0060
0F0040
078080
078100
03C100
01E200
01E400
00F800
007800
007C00
003C00
005E00
00CF00
008F00
010780
0303C0
0203C0
0401E0
0C00F0
3800F8
FF03FE
ENDCHAR
STARTCHAR Y
ENCODING 89
SWIDTH 688 0
DWIDTH 22 0
BBX 22 22 0 0
VVECTOR 11 27
SWIDTH1 0 -1094
DWIDTH1 0 -35
BITMAP 
FF81FC
3E0070
0F0020
070040
078040
03C080
01C100
01E100
00F200
007C00
007C00
003800
003800
003800
003800
003800
003800
003800
003800
003800
007C00
01FF00
ENDCHAR
STARTCHAR Z
ENCODING 90
SWIDTH 656 0
DWIDTH 21 0
BBX 20 22 0 0
VVECTOR 10 27
SWIDTH1 0 -1094
DWIDTH1 0 -35
BITMAP 
3FFFF0
3001E0
2001E0
2003C0
000780
000F00
000F00
001E00
003C00
007800
007800
00F000
01E000
03C000
03C000
078000
0F0000
1E0000
1E0010
3C0030
7800E0
FFFFE0
ENDCHAR
STARTCHAR bracketleft
ENCODING 91
SWIDTH 344 0
DWIDTH 11 0
BBX 7 29 2 -6
VVECTOR 6 27
SWIDTH1 0 -1094
DWIDTH1 0 -35
BITMAP 
FE
F0
E0
E0
E0
E0
E0
E0
E0
E0
E0
E0
E0
E0
E0
E0
E0
E0
E0
E0
E0
E0
E0
E0
E0
E0
E0
F0
FE
ENDCHAR
STARTCHAR backslash
ENCODING 92
SWIDTH 250 0
DWIDTH 8 0
BBX 8 23 0 0
VVECTOR 4 27
SWIDTH1 0 -1094
DWIDTH1 0 -35
BITMAP 
C0
C0
C0
60
60
60
30
30
30
18
18
18
18
0C
0C
0C
06
06
06
06
03
03
03
ENDCHAR
STARTCHAR bracketright
ENCODING 93
SWIDTH 344 0
DWIDTH 11 0
BBX 7 29 2 -6
VVECTOR 6 27
SWIDTH1 0 -1094
DWIDTH1 0 -35
BITMAP 
FE
1E
0E
0E
0E
0E
0E
0E
0E
0E
0E
0E
0E
0E
0E
0E
0E
0E
0E
0E
0E
0E
0E
0E
0E
0E
0E
1E
FE
ENDCHAR
STARTCHAR asciicircum
ENCODING 94
SWIDTH 344 0
DWIDTH 11 0
BBX 9 4 1 23
VVECTOR 6 27
SWIDTH1 0 -1094
DWIDTH1 0 -35
BITMAP 
1C00
3E00
7700
C180
ENDCHAR
STARTCHAR underscore
ENCODING 95
SWIDTH 500 0
DWIDTH 16 0
BBX 16 2 0 -3
VVECTOR 8 27
SWIDTH1 0 -1094
DWIDTH1 0 -35
BITMAP 
FFFF
FFFF
ENDCHAR
STARTCHAR grave
ENCODING 96
SWIDTH 344 0
DWIDTH 11 0
BBX 5 4 4 18
VVECTOR 8 27
SWIDTH1 0 -1094
DWIDTH1 0 -35
BITMAP 
C0
E0
30
08
ENDCHAR
STARTCHAR a
ENCODING 97
SWIDTH 438 0
DWIDTH 14 0
BBX 12 15 2 0
VVECTOR 9 27
SWIDTH1 0 -1094
DWIDTH1 0 -35
BITMAP 
1F00
7180
E1C0
E1C0
41C0
03C0
0FC0
39C0
71C0
E1C0
E1C0
E1C0
F3C0
7DF0
38E0
ENDCHAR
STARTCHAR b
ENCODING 98
SWIDTH 531 0
DWIDTH 17 0
BBX 15 23 1 0
VVECTOR 9 27
SWIDTH1 0 -1094
DWIDTH1 0 -35
BITMAP 
1800
3800
F800
3800
3800
3800
3800
3800
39E0
3EF8
383C
381C
381E
380E
380E
380E
380E
380E
381C
381C
3838
1CF0
07C0
ENDCHAR
STARTCHAR c
ENCODING 99
SWIDTH 438 0
DWIDTH 14 0
BBX 12 15 1 0
VVECTOR 7 27
SWIDTH1 0 -1094
DWIDTH1 0 -35
BITMAP 
0F00
39C0
70E0
60E0
E040
E000
E000
E000
E000
E000
F000
7810
7C20
3FC0
0F80
ENDCHAR
STARTCHAR d
ENCODING 100
SWIDTH 531 0
DWIDTH 17 0
BBX 15 23 1 0
VVECTOR 9 27
SWIDTH1 0 -1094
DWIDTH1 0 -35
BITMAP 
000C
001C
007C
001C
001C
001C
001C
001C
0F1C
38DC
703C
601C
E01C
E01C
E01C
E01C
E01C
E01C
F01C
701C
7C3E
3FD8
0F10
ENDCHAR
STARTCHAR e
ENCODING 101
SWIDTH 438 0
DWIDTH 14 0
BBX 12 15 1 0
VVECTOR 7 27
SWIDTH1 0 -1094
DWIDTH1 0 -35
BITMAP 
0E00
3F80
71C0
60C0
E0E0
E0E0
FFE0
E000
E000
E000
F000
7830
7FE0
3FC0
0F00
ENDCHAR
STARTCHAR f
ENCODING 102
SWIDTH 313 0
DWIDTH 10 0
BBX 10 23 0 0
VVECTOR 5 27
SWIDTH1 0 -1094
DWIDTH1 0 -35
BITMAP 
0F80
19C0
38C0
3800
3800
3800
3800
3800
FE00
3800
3800
3800
3800
3800
3800
3800
3800
3800
3800
3800
3800
7C00
FE00
ENDCHAR
STARTCHAR g
ENCODING 103
SWIDTH 500 0
DWIDTH 16 0
BBX 14 23 1 -8
VVECTOR 8 27
SWIDTH1 0 -1094
DWIDTH1 0 -35
BITMAP 
0FC0
39F8
60E0
6070
E070
E070
E060
7060
79C0
3F00
1000
2000
6000
7FC0
7FF0
3FF8
101C
600C
E00C
F018
FFF0
7FE0
1FC0
ENDCHAR
STARTCHAR h
ENCODING 104
SWIDTH 500 0
DWIDTH 16 0
BBX 15 23 1 0
VVECTOR 9 27
SWIDTH1 0 -1094
DWIDTH1 0 -35
BITMAP 
1800
3800
F800
3800
3800
3800
3800
3800
39E0
3BF0
3C78
3838
3838
3838
3838
3838
3838
3838
3838
3838
3838
7C7C
FEFE
ENDCHAR
STARTCHAR i
ENCODING 105
SWIDTH 250 0
DWIDTH 8 0
BBX 7 23 1 0
VVECTOR 5 27
SWIDTH1 0 -1094
DWIDTH1 0 -35
BITMAP 
10
38
38
10
00
00
00
00
08
38
F8
38
38
38
38
38
38
38
38
38
38
7C
FE
ENDCHAR
STARTCHAR j
ENCODING 106
SWIDTH 281 0
DWIDTH 9 0
BBX 6 31 0 -8
VVECTOR 2 27
SWIDTH1 0 -1094
DWIDTH1 0 -35
BITMAP 
08
1C
1C
08
00
00
00
00
04
1C
7C
1C
1C
1C
1C
1C
1C
1C
1C
1C
1C
1C
1C
1C
1C
1C
1C
1C
18
D8
F0
ENDCHAR
STARTCHAR k
ENCODING 107
SWIDTH 500 0
DWIDTH 16 0
BBX 15 23 1 0
VVECTOR 9 27
SWIDTH1 0 -1094
DWIDTH1 0 -35
BITMAP 
1800
3800
F800
3800
3800
3800
3800
3800
38F0
3840
3880
3900
3A00
3C00
3E00
3F00
3B80
39C0
38E0
3870
3838
7C1C
FE7E
ENDCHAR
STARTCHAR l
ENCODING 108
SWIDTH 250 0
DWIDTH 8 0
BBX 7 23 1 0
VVECTOR 5 27
SWIDTH1 0 -1094
DWIDTH1 0 -35
BITMAP 
18
38
F8
38
38
38
38
38
38
38
38
38
38
38
38
38
38
38
38
38
38
7C
FE
ENDCHAR
STARTCHAR m
ENCODING 109
SWIDTH 750 0
DWIDTH 24 0
BBX 23 15 1 0
VVECTOR 13 27
SWIDTH1 0 -1094
DWIDTH1 0 -35
BITMAP 
19E1E0
3BF3F0
FC7C78
383838
383838
383838
383838
383838
383838
383838
383838
383838
383838
7C7C7C
FEFEFE
ENDCHAR
STARTCHAR n
ENCODING 110
SWIDTH 500 0
DWIDTH 16 0
BBX 15 15 1 0
VVECTOR 9 27
SWIDTH1 0 -1094
DWIDTH1 0 -35
BITMAP 
19E0
3BF0
FC78
3838
3838
3838
3838
3838
3838
3838
3838
3838
3838
7C7C
FEFE
ENDCHAR
STARTCHAR o
ENCODING 111
SWIDTH 531 0
DWIDTH 17 0
BBX 14 15 2 0
VVECTOR 10 27
SWIDTH1 0 -1094
DWIDTH1 0 -35
BITMAP 
07C0
1CF0
3078
7038
603C
E01C
E01C
E01C
E01C
E01C
E018
7038
7830
3CE0
0F80
ENDCHAR
STARTCHAR p
ENCODING 112
SWIDTH 531 0
DWIDTH 17 0
BBX 15 23 1 -8
VVECTOR 9 27
SWIDTH1 0 -1094
DWIDTH1 0 -35
BITMAP 
19E0
3EF8
F83C
381C
381E
380E
380E
380E
380E
380E
381C
381C
3838
3CF0
3FC0
3800
3800
3800
3800
3800
3800
7C00
FE00
ENDCHAR
STARTCHAR q
ENCODING 113
SWIDTH 531 0
DWIDTH 17 0
BBX 15 23 1 -8
VVECTOR 9 27
SWIDTH1 0 -1094
DWIDTH1 0 -35
BITMAP 
0F08
38F8
7038
6038
E038
E038
E038
E038
E038
E038
F038
7038
7C38
3FF8
0F38
0038
0038
0038
0038
0038
0038
007C
00FE
ENDCHAR
STARTCHAR r
ENCODING 114
SWIDTH 344 0
DWIDTH 11 0
BBX 11 15 0 0
VVECTOR 6 27
SWIDTH1 0 -1094
DWIDTH1 0 -35
BITMAP 
19C0
3BE0
FCE0
3800
3800
3800
3800
3800
3800
3800
3800
3800
3800
7C00
FE00
ENDCHAR
STARTCHAR s
ENCODING 115
SWIDTH 406 0
DWIDTH 13 0
BBX 10 15 2 0
VVECTOR 8 27
SWIDTH1 0 -1094
DWIDTH1 0 -35
BITMAP 
3E80
7180
E080
E080
F000
7000
7C00
1F00
0780
03C0
81C0
81C0
C1C0
F380
9F00
ENDCHAR
STARTCHAR t
ENCODING 116
SWIDTH 250 0
DWIDTH 8 0
BBX 8 20 0 0
VVECTOR 4 27
SWIDTH1 0 -1094
DWIDTH1 0 -35
BITMAP 
08
08
18
38
38
FC
38
38
38
38
38
38
38
38
38
38
38
39
1E
0C
ENDCHAR
STARTCHAR u
ENCODING 117
SWIDTH 500 0
DWIDTH 16 0
BBX 15 15 1 0
VVECTOR 9 27
SWIDTH1 0 -1094
DWIDTH1 0 -35
BITMAP 
F078
7038
7038
7038
7038
7038
7038
7038
7038
7038
7038
7038
387E
1FB8
0F30
ENDCHAR
STARTCHAR v
ENCODING 118
SWIDTH 531 0
DWIDTH 17 0
BBX 16 15 1 0
VVECTOR 10 27
SWIDTH1 0 -1094
DWIDTH1 0 -35
BITMAP 
FE3F
380C
3808
1C08
1C10
0E10
0E10
0720
0720
03A0
03C0
01C0
0180
0080
0080
ENDCHAR
STARTCHAR w
ENCODING 119
SWIDTH 781 0
DWIDTH 25 0
BBX 24 15 1 0
VVECTOR 14 27
SWIDTH1 0 -1094
DWIDTH1 0 -35
BITMAP 
FE7F1F
381C04
381C04
1C1E08
1C1E08
1C1F08
0E2710
0E2790
0743A0
0743A0
07C3E0
0381C0
0381C0
010080
010080
ENDCHAR
STARTCHAR x
ENCODING 120
SWIDTH 500 0
DWIDTH 16 0
BBX 15 15 1 0
VVECTOR 9 27
SWIDTH1 0 -1094
DWIDTH1 0 -35
BITMAP 
FC7C
3830
1C60
1C40
0EC0
0780
0780
0380
07C0
05C0
0CE0
0870
1870
3038
FCFE
ENDCHAR
STARTCHAR y
ENCODING 121
SWIDTH 531 0
DWIDTH 17 0
BBX 16 23 1 -8
VVECTOR 10 27
SWIDTH1 0 -1094
DWIDTH1 0 -35
BITMAP 
FE3F
380C
3808
1C08
1C10
0E10
0E10
0720
0720
03A0
03C0
01C0
0180
0080
0080
0100
0100
0200
0200
0400
6C00
F800
7000
ENDCHAR
STARTCHAR z
ENCODING 122
SWIDTH 438 0
DWIDTH 14 0
BBX 13 15 1 0
VVECTOR 8 27
SWIDTH1 0 -1094
DWIDTH1 0 -35
BITMAP 
7FF8
6070
40E0
40E0
01C0
0380
0380
0700
0E00
0E00
1C00
3808
3808
7018
FFF8
ENDCHAR
STARTCHAR braceleft
ENCODING 123
SWIDTH 406 0
DWIDTH 13 0
BBX 10 30 2 -6
VVECTOR 8 27
SWIDTH1 0 -1094
DWIDTH1 0 -35
BITMAP 
01C0
0700
0600
0E00
0E00
0E00
0E00
0E00
0E00
0E00
0E00
1C00
1C00
3800
E000
3800
1C00
1C00
0E00
0E00
0E00
0E00
0E00
0E00
0E00
0E00
0E00
0600
0700
01C0
ENDCHAR
STARTCHAR bar
ENCODING 124
SWIDTH 281 0
DWIDTH 9 0
BBX 3 24 3 -1
VVECTOR 5 27
SWIDTH1 0 -1094
DWIDTH1 0 -35
BITMAP 
E0
E0
E0
E0
E0
E0
E0
E0
E0
E0
E0
E0
E0
E0
E0
E0
E0
E0
E0
E0
E0
E0
E0
E0
ENDCHAR
STARTCHAR braceright
ENCODING 125
SWIDTH 406 0
DWIDTH 13 0
BBX 10 30 2 -6
VVECTOR 8 27
SWIDTH1 0 -1094
DWIDTH1 0 -35
BITMAP 
E000
3800
1800
1C00
1C00
1C00
1C00
1C00
1C00
1C00
1C00
0E00
0E00
0700
01C0
0700
0E00
0E00
1C00
1C00
1C00
1C00
1C00
1C00
1C00
1C00
1C00
1800
3800
E000
ENDCHAR
STARTCHAR asciitilde
ENCODING 126
SWIDTH 438 0
DWIDTH 14 0
BBX 12 4 1 23
VVECTOR 7 27
SWIDTH1 0 -1094
DWIDTH1 0 -35
BITMAP 
3C10
7E30
C7E0
81C0
ENDCHAR
STARTCHAR house
ENCODING 127
SWIDTH 688 0
DWIDTH 22 0
BBX 16 19 3 0
VVECTOR 11 27
SWIDTH1 0 -1094
DWIDTH1 0 -35
BITMAP 
0180
0240
0420
0810
1008
2004
4002
8001
8001
8001
8001
8001
8001
8001
8001
8001
8001
8001
FFFF
ENDCHAR
STARTCHAR Ccedilla
ENCODING 128
SWIDTH 656 0
DWIDTH 21 0
BBX 19 28 1 -6
VVECTOR 11 27
SWIDTH1 0 -1094
DWIDTH1 0 -35
BITMAP 
01F880
078780
1E0180
3C00C0
380040
780040
700000
F00000
F00000
F00000
F00000
F00000
F00000
F00000
F00000
780000
780000
3C0020
3E0040
1F8080
07FF00
01FC00
006000
00E000
007000
001800
011800
00F000
ENDCHAR
STARTCHAR udieresis
ENCODING 129
SWIDTH 500 0
DWIDTH 16 0
BBX 15 22 1 0
VVECTOR 9 27
SWIDTH1 0 -1094
DWIDTH1 0 -35
BITMAP 
1020
3870
3870
1020
0000
0000
0000
F078
7038
7038
7038
7038
7038
7038
7038
7038
7038
7038
7038
387E
1FB8
0F30
ENDCHAR
STARTCHAR eacute
ENCODING 130
SWIDTH 438 0
DWIDTH 14 0
BBX 12 22 1 0
VVECTOR 7 27
SWIDTH1 0 -1094
DWIDTH1 0 -35
BITMAP 
0300
0700
0C00
1000
0000
0000
0000
0E00
3F80
71C0
60C0
E0E0
E0E0
FFE0
E000
E000
E000
F000
7830
7FE0
3FC0
0F00
ENDCHAR
STARTCHAR acircumflex
ENCODING 131
SWIDTH 438 0
DWIDTH 14 0
BBX 12 22 2 0
VVECTOR 9 27
SWIDTH1 0 -1094
DWIDTH1 0 -35
BITMAP 
0C00
1E00
3300
4080
0000
0000
0000
1F00
7180
E1C0
E1C0
41C0
03C0
0FC0
39C0
71C0
E1C0
E1C0
E1C0
F1C0
7EF0
3860
ENDCHAR
STARTCHAR adieresis
ENCODING 132
SWIDTH 438 0
DWIDTH 14 0
BBX 12 22 2 0
VVECTOR 9 27
SWIDTH1 0 -1094
DWIDTH1 0 -35
BITMAP 
2100
7380
7380
2100
0000
0000
0000
1F00
7180
E1C0
E1C0
41C0
03C0
0FC0
39C0
71C0
E1C0
E1C0
E1C0
F1C0
7EF0
3860
ENDCHAR
STARTCHAR agrave
ENCODING 133
SWIDTH 438 0
DWIDTH 14 0
BBX 12 22 2 0
VVECTOR 9 27
SWIDTH1 0 -1094
DWIDTH1 0 -35
BITMAP 
1800
1C00
0600
0100
0000
0000
0000
1F00
7180
E1C0
E1C0
41C0
03C0
0FC0
39C0
71C0
E1C0
E1C0
E1C0
F1C0
7EF0
3860
ENDCHAR
STARTCHAR aring
ENCODING 134
SWIDTH 438 0
DWIDTH 14 0
BBX 12 23 2 0
VVECTOR 9 27
SWIDTH1 0 -1094
DWIDTH1 0 -35
BITMAP 
0E00
1F00
3180
3180
1F00
0E00
0000
0000
1F00
7180
E1C0
E1C0
41C0
03C0
0FC0
39C0
71C0
E1C0
E1C0
E1C0
F1C0
7EF0
3860
ENDCHAR
STARTCHAR ccedilla
ENCODING 135
SWIDTH 438 0
DWIDTH 14 0
BBX 12 20 1 -5
VVECTOR 7 27
SWIDTH1 0 -1094
DWIDTH1 0 -35
BITMAP 
0700
1FC0
38E0
60E0
60E0
E040
E000
E000
E000
E000
F000
7810
7C20
3FC0
0F80
0600
0300
0180
1180
0F00
ENDCHAR
STARTCHAR ecircumflex
ENCODING 136
SWIDTH 438 0
DWIDTH 14 0
BBX 12 22 1 0
VVECTOR 7 27
SWIDTH1 0 -1094
DWIDTH1 0 -35
BITMAP 
0C00
1E00
3300
4080
0000
0000
0000
0E00
3F80
71C0
60C0
E0E0
E0E0
FFE0
E000
E000
E000
F000
7830
7FE0
3FC0
0F00
ENDCHAR
STARTCHAR edieresis
ENCODING 137
SWIDTH 438 0
DWIDTH 14 0
BBX 12 22 1 0
VVECTOR 7 27
SWIDTH1 0 -1094
DWIDTH1 0 -35
BITMAP 
1080
39C0
39C0
1080
0000
0000
0000
0E00
3F80
71C0
60C0
E0E0
E0E0
FFE0
E000
E000
E000
F000
7830
7FE0
3FC0
0F00
ENDCHAR
STARTCHAR egrave
ENCODING 138
SWIDTH 438 0
DWIDTH 14 0
BBX 12 22 1 0
VVECTOR 7 27
SWIDTH1 0 -1094
DWIDTH1 0 -35
BITMAP 
1800
1C00
0600
0100
0000
0000
0000
0E00
3F80
71C0
60C0
E0E0
E0E0
FFE0
E000
E000
E000
F000
7830
7FE0
3FC0
0F00
ENDCHAR
STARTCHAR idieresis
ENCODING 139
SWIDTH 250 0
DWIDTH 8 0
BBX 8 22 0 0
VVECTOR 4 27
SWIDTH1 0 -1094
DWIDTH1 0 -35
BITMAP 
42
E7
E7
42
00
00
00
0C
1C
7C
1C
1C
1C
1C
1C
1C
1C
1C
1C
1C
3E
7F
ENDCHAR
STARTCHAR icircumflex
ENCODING 140
SWIDTH 250 0
DWIDTH 8 0
BBX 7 23 1 0
VVECTOR 5 27
SWIDTH1 0 -1094
DWIDTH1 0 -35
BITMAP 
10
38
6C
82
00
00
00
00
18
38
F8
38
38
38
38
38
38
38
38
38
38
7C
FE
ENDCHAR
STARTCHAR igrave
ENCODING 141
SWIDTH 250 0
DWIDTH 8 0
BBX 7 22 1 0
VVECTOR 5 27
SWIDTH1 0 -1094
DWIDTH1 0 -35
BITMAP 
C0
E0
30
08
00
00
00
18
38
F8
38
38
38
38
38
38
38
38
38
38
7C
FE
ENDCHAR
STARTCHAR Adieresis
ENCODING 142
SWIDTH 688 0
DWIDTH 22 0
BBX 22 27 0 0
VVECTOR 11 27
SWIDTH1 0 -1094
DWIDTH1 0 -35
BITMAP 
020200
070700
070700
020200
000000
002000
002000
003000
007000
007800
00F800
00F800
00FC00
01BC00
019E00
031E00
030F00
030F00
060F00
060780
0FFF80
0C03C0
0C03C0
1801E0
1801E0
3803F0
FC0FFC
ENDCHAR
STARTCHAR Aring
ENCODING 143
SWIDTH 688 0
DWIDTH 22 0
BBX 22 27 0 0
VVECTOR 11 27
SWIDTH1 0 -1094
DWIDTH1 0 -35
BITMAP 
007000
00F800
018C00
018C00
00F800
007000
002000
003000
007000
007800
00F800
00F800
00FC00
01BC00
019E00
031E00
030F00
030F00
060F00
060780
0FFF80
0C03C0
0C03C0
1801E0
1801E0
3803F0
FC0FFC
ENDCHAR
STARTCHAR Eacute
ENCODING 144
SWIDTH 625 0
DWIDTH 20 0
BBX 18 27 1 0
VVECTOR 10 27
SWIDTH1 0 -1094
DWIDTH1 0 -35
BITMAP 
003000
007000
00C000
010000
000000
FFFF00
3E0300
1C0100
1C0100
1C0000
1C0000
1C0000
1C0400
1C0400
1C0C00
1FFC00
1C0C00
1C0400
1C0400
1C0000
1C0000
1C0000
1C0000
1C0040
1C00C0
3E0380
FFFF80
ENDCHAR
STARTCHAR ae
ENCODING 145
SWIDTH 656 0
DWIDTH 21 0
BBX 19 15 1 0
VVECTOR 11 27
SWIDTH1 0 -1094
DWIDTH1 0 -35
BITMAP 
1F0700
719FC0
E0F1C0
E0E0E0
40E0E0
01FFE0
0FE000
3CE000
70E000
E0E000
E0E000
E0F020
E1F840
7E3F80
380E00
ENDCHAR
STARTCHAR AE
ENCODING 146
SWIDTH 906 0
DWIDTH 29 0
BBX 28 22 0 0
VVECTOR 14 27
SWIDTH1 0 -1094
DWIDTH1 0 -35
BITMAP 
00FFFFC0
001FC0C0
00338040
00338040
00338000
00638000
00638000
00C38080
00C38080
00C38180
0183FF80
01838180
03038080
03FF8080
03038000
06038000
06038000
0C038000
0C038010
0C038030
3E07C0E0
FF9FFFE0
ENDCHAR
STARTCHAR ocircumflex
ENCODING 147
SWIDTH 531 0
DWIDTH 17 0
BBX 14 22 2 0
VVECTOR 10 27
SWIDTH1 0 -1094
DWIDTH1 0 -35
BITMAP 
0300
0780
0CC0
1020
0000
0000
0000
07C0
1CF0
3078
7038
603C
E01C
E01C
E01C
E01C
E01C
E018
7038
7830
3CE0
0F80
ENDCHAR
STARTCHAR odieresis
ENCODING 148
SWIDTH 531 0
DWIDTH 17 0
BBX 14 22 2 0
VVECTOR 10 27
SWIDTH1 0 -1094
DWIDTH1 0 -35
BITMAP 
1040
38E0
38E0
1040
0000
0000
0000
07C0
1CF0
3078
7038
603C
E01C
E01C
E01C
E01C
E01C
E018
7038
7830
3CE0
0F80
ENDCHAR
STARTCHAR ograve
ENCODING 149
SWIDTH 531 0
DWIDTH 17 0
BBX 14 22 2 0
VVECTOR 10 27
SWIDTH1 0 -1094
DWIDTH1 0 -35
BITMAP 
0C00
0E00
0300
0080
0000
0000
0000
07C0
1CF0
3078
7038
603C
E01C
E01C
E01C
E01C
E01C
E018
7038
7830
3CE0
0F80
ENDCHAR
STARTCHAR ucircumflex
ENCODING 150
SWIDTH 500 0
DWIDTH 16 0
BBX 15 22 1 0
VVECTOR 9 27
SWIDTH1 0 -1094
DWIDTH1 0 -35
BITMAP 
0300
0780
0CC0
1020
0000
0000
0000
F078
7038
7038
7038
7038
7038
7038
7038
7038
7038
7038
7038
387E
1FB8
0F30
ENDCHAR
STARTCHAR ugrave
ENCODING 151
SWIDTH 500 0
DWIDTH 16 0
BBX 15 22 1 0
VVECTOR 9 27
SWIDTH1 0 -1094
DWIDTH1 0 -35
BITMAP 
0C00
0E00
0300
0080
0000
0000
0000
F078
7038
7038
7038
7038
7038
7038
7038
7038
7038
7038
7038
387E
1FB8
0F30
ENDCHAR
STARTCHAR ydieresis
ENCODING 152
SWIDTH 531 0
DWIDTH 17 0
BBX 16 30 1 -8
VVECTOR 10 27
SWIDTH1 0 -1094
DWIDTH1 0 -35
BITMAP 
0810
1C38
1C38
0810
0000
0000
0000
FE3F
380C
3808
1C08
1C10
0E10
0E10
0720
0720
03A0
03C0
01C0
0180
0080
0080
0100
0100
0200
0200
0400
6C00
F800
7000
ENDCHAR
STARTCHAR Odieresis
ENCODING 153
SWIDTH 719 0
DWIDTH 23 0
BBX 19 27 2 0
VVECTOR 12 27
SWIDTH1 0 -1094
DWIDTH1 0 -35
BITMAP 
040400
0E0E00
0E0E00
040400
000000
03F800
0F1E00
1C0700
380380
380380
7001C0
7001C0
F001E0
F001E0
F001E0
F001E0
F001E0
F001E0
F001E0
F001E0
7001C0
7001C0
380380
380380
1C0700
0F1E00
03F800
ENDCHAR
STARTCHAR Udieresis
ENCODING 154
SWIDTH 719 0
DWIDTH 23 0
BBX 21 27 1 0
VVECTOR 12 27
SWIDTH1 0 -1094
DWIDTH1 0 -35
BITMAP 
030300
078780
078780
030300
000000
FF83F8
3E00E0
1C0040
1C0040
1C0040
1C0040
1C0040
1C0040
1C0040
1C0040
1C0040
1C0040
1C0040
1C0040
1C0040
1C0040
1C0040
1E0040
0E0080
0F0080
07C300
01FC00
ENDCHAR
STARTCHAR oslash
ENCODING 155
SWIDTH 500 0
DWIDTH 16 0
BBX 14 15 1 0
VVECTOR 8 27
SWIDTH1 0 -1094
DWIDTH1 0 -35
BITMAP 
07C4
1CFC
3078
7038
607C
E0DC
E19C
E31C
E61C
EC1C
F818
7038
7830
FCE0
8F80
ENDCHAR
STARTCHAR sterling
ENCODING 156
SWIDTH 500 0
DWIDTH 16 0
BBX 16 23 0 0
VVECTOR 8 27
SWIDTH1 0 -1094
DWIDTH1 0 -35
BITMAP 
03E0
0E38
1C3C
1C18
3800
3800
3800
3800
1800
FF80
FF80
1C00
1C00
1C00
1C00
1C00
1C00
3C01
7E03
DF8E
DBFE
F9FC
7070
ENDCHAR
STARTCHAR Oslash
ENCODING 157
SWIDTH 719 0
DWIDTH 23 0
BBX 19 24 2 -1
VVECTOR 12 27
SWIDTH1 0 -1094
DWIDTH1 0 -35
BITMAP 
0000C0
03F8C0
0F1F80
1C0780
380380
380780
700DC0
700DC0
F019E0
F039E0
F071E0
F061E0
F0C1E0
F1C1E0
F381E0
F301E0
7601C0
7601C0
3C0380
380380
3C0700
3F1E00
63F800
600000
ENDCHAR
STARTCHAR multiply
ENCODING 158
SWIDTH 562 0
DWIDTH 18 0
BBX 11 11 4 4
VVECTOR 10 27
SWIDTH1 0 -1094
DWIDTH1 0 -35
BITMAP 
4040
E0E0
71C0
3B80
1F00
0E00
1F00
3B80
71C0
E0E0
4040
ENDCHAR
STARTCHAR florin
ENCODING 159
SWIDTH 500 0
DWIDTH 16 0
BBX 16 27 0 -5
VVECTOR 8 27
SWIDTH1 0 -1094
DWIDTH1 0 -35
BITMAP 
000E
001F
0037
0072
0060
00E0
00E0
00E0
0FFC
0FFC
01C0
01C0
01C0
01C0
0180
0380
0380
0380
0380
0300
0700
0700
0600
4600
EC00
F800
7000
ENDCHAR
STARTCHAR aacute
ENCODING 160
SWIDTH 438 0
DWIDTH 14 0
BBX 12 22 2 0
VVECTOR 9 27
SWIDTH1 0 -1094
DWIDTH1 0 -35
BITMAP 
0300
0700
0C00
1000
0000
0000
0000
1F00
7180
E1C0
E1C0
41C0
03C0
0FC0
39C0
71C0
E1C0
E1C0
E1C0
F1C0
7EF0
3860
ENDCHAR
STARTCHAR iacute
ENCODING 161
SWIDTH 250 0
DWIDTH 8 0
BBX 7 23 1 0
VVECTOR 5 27
SWIDTH1 0 -1094
DWIDTH1 0 -35
BITMAP 
0C
1C
30
40
00
00
00
00
18
38
F8
38
38
38
38
38
38
38
38
38
38
7C
FE
ENDCHAR
STARTCHAR oacute
ENCODING 162
SWIDTH 531 0
DWIDTH 17 0
BBX 14 22 2 0
VVECTOR 10 27
SWIDTH1 0 -1094
DWIDTH1 0 -35
BITMAP 
0180
0380
0600
0800
0000
0000
0000
07C0
1CF0
3078
7038
603C
E01C
E01C
E01C
E01C
E01C
E018
7038
7830
3CE0
0F80
ENDCHAR
STARTCHAR uacute
ENCODING 163
SWIDTH 500 0
DWIDTH 16 0
BBX 15 22 1 0
VVECTOR 9 27
SWIDTH1 0 -1094
DWIDTH1 0 -35
BITMAP 
00C0
01C0
0300
0400
0000
0000
0000
F078
7038
7038
7038
7038
7038
7038
7038
7038
7038
7038
7038
387E
1FB8
0F30
ENDCHAR
STARTCHAR ntilde
ENCODING 164
SWIDTH 500 0
DWIDTH 16 0
BBX 15 22 1 0
VVECTOR 9 27
SWIDTH1 0 -1094
DWIDTH1 0 -35
BITMAP 
1E08
3F18
63F0
41E0
0000
0000
0000
19E0
3BF0
7C78
3838
3838
3838
3838
3838
3838
3838
3838
3838
3838
7C7C
FEFE
ENDCHAR
STARTCHAR Ntilde
ENCODING 165
SWIDTH 719 0
DWIDTH 23 0
BBX 21 27 1 0
VVECTOR 12 27
SWIDTH1 0 -1094
DWIDTH1 0 -35
BITMAP 
03C100
07E300
0C7E00
083C00
000000
F803F8
3C00E0
1E0040
1E0040
1F0040
178040
13C040
13C040
11E040
10F040
107840
107840
103C40
101E40
100F40
100F40
1007C0
1003C0
1001C0
1001C0
3800C0
FE0040
ENDCHAR
STARTCHAR ordfeminine
ENCODING 166
SWIDTH 281 0
DWIDTH 9 0
BBX 9 12 0 11
VVECTOR 5 27
SWIDTH1 0 -1094
DWIDTH1 0 -35
BITMAP 
3E00
6700
6300
0700
1F00
7300
E300
E700
7D80
0000
FF80
FF80
ENDCHAR
STARTCHAR ordmasculine
ENCODING 167
SWIDTH 281 0
DWIDTH 9 0
BBX 9 12 0 11
VVECTOR 5 27
SWIDTH1 0 -1094
DWIDTH1 0 -35
BITMAP 
3E00
6300
C180
C180
C180
C180
C180
6300
3E00
0000
FF80
FF80
ENDCHAR
STARTCHAR questiondown
ENCODING 168
SWIDTH 438 0
DWIDTH 14 0
BBX 11 23 1 -7
VVECTOR 6 27
SWIDTH1 0 -1094
DWIDTH1 0 -35
BITMAP 
0400
0E00
0E00
0400
0000
0000
0000
0400
0400
0400
0C00
0800
1800
1800
3000
7000
6040
E0E0
E0E0
E060
7060
70C0
1F80
ENDCHAR
STARTCHAR registered
ENCODING 169
SWIDTH 750 0
DWIDTH 24 0
BBX 22 22 1 0
VVECTOR 12 27
SWIDTH1 0 -1094
DWIDTH1 0 -35
BITMAP 
00FC00
03FF00
0F03C0
1C00E0
380070
300030
63FC18
618E18
E1861C
C1860C
C18C0C
C1F80C
C1B80C
E19C1C
618E18
63C798
300030
380070
1C00E0
0F03C0
03FF00
00FC00
ENDCHAR
STARTCHAR logicalnot
ENCODING 170
SWIDTH 562 0
DWIDTH 18 0
BBX 14 5 2 5
VVECTOR 9 27
SWIDTH1 0 -1094
DWIDTH1 0 -35
BITMAP 
FFFC
FFFC
000C
000C
000C
ENDCHAR
STARTCHAR onehalf
ENCODING 171
SWIDTH 688 0
DWIDTH 22 0
BBX 19 23 1 0
VVECTOR 10 27
SWIDTH1 0 -1094
DWIDTH1 0 -35
BITMAP 
000180
300180
700300
B00600
300600
300C00
301800
301800
303000
786000
FC6000
00C000
018000
018F80
0310C0
0600C0
0600C0
0C0180
180300
180600
300C20
301FC0
601F80
ENDCHAR
STARTCHAR onequarter
ENCODING 172
SWIDTH 688 0
DWIDTH 22 0
BBX 17 23 2 0
VVECTOR 10 27
SWIDTH1 0 -1094
DWIDTH1 0 -35
BITMAP 
000180
300300
700300
B00600
300C00
300C00
301800
303000
303000
786000
FCC000
00C000
018000
030300
030700
060B00
0C1300
0C2300
187F80
307F80
300300
600300
600300
ENDCHAR
STARTCHAR exclamdown
ENCODING 173
SWIDTH 281 0
DWIDTH 9 0
BBX 3 23 3 -7
VVECTOR 5 27
SWIDTH1 0 -1094
DWIDTH1 0 -35
BITMAP 
40
E0
E0
40
00
00
00
00
40
40
40
40
40
E0
E0
E0
E0
E0
E0
E0
E0
40
40
ENDCHAR
STARTCHAR guillemotleft
ENCODING 174
SWIDTH 500 0
DWIDTH 16 0
BBX 13 13 2 5
VVECTOR 9 27
SWIDTH1 0 -1094
DWIDTH1 0 -35
BITMAP 
0208
0618
0E38
1C70
38E0
71C0
E380
71C0
38E0
1C70
0E38
0618
0208
ENDCHAR
STARTCHAR guillemotright
ENCODING 175
SWIDTH 500 0
DWIDTH 16 0
BBX 13 13 1 5
VVECTOR 7 27
SWIDTH1 0 -1094
DWIDTH1 0 -35
BITMAP 
8200
C300
E380
71C0
38E0
1C70
0E38
1C70
38E0
71C0
E380
C300
8200
ENDCHAR
STARTCHAR ltshade
ENCODING 176
SWIDTH 594 0
DWIDTH 19 0
BBX 15 28 2 -5
VVECTOR 10 27
SWIDTH1 0 -1094
DWIDTH1 0 -35
BITMAP 
E38E
E38E
E38E
E38E
0000
0000
0000
0000
E38E
E38E
E38E
E38E
0000
0000
0000
0000
E38E
E38E
E38E
E38E
0000
0000
0000
0000
E38E
E38E
E38E
E38E
ENDCHAR
STARTCHAR shade
ENCODING 177
SWIDTH 594 0
DWIDTH 19 0
BBX 15 32 2 -5
VVECTOR 10 27
SWIDTH1 0 -1094
DWIDTH1 0 -35
BITMAP 
0380
0380
0380
0380
E00E
E00E
E00E
E00E
0380
0380
0380
0380
E00E
E00E
E00E
E00E
0380
0380
0380
0380
E00E
E00E
E00E
E00E
0380
0380
0380
0380
E00E
E00E
E00E
E00E
ENDCHAR
STARTCHAR dkshade
ENCODING 178
SWIDTH 594 0
DWIDTH 19 0
BBX 15 32 2 -5
VVECTOR 10 27
SWIDTH1 0 -1094
DWIDTH1 0 -35
BITMAP 
1C70
1C70
1C70
1C70
E38E
E38E
E38E
E38E
1C70
1C70
1C70
1C70
E38E
E38E
E38E
E38E
1C70
1C70
1C70
1C70
E38E
E38E
E38E
E38E
1C70
1C70
1C70
1C70
E38E
E38E
E38E
E38E
ENDCHAR
STARTCHAR SF110000
ENCODING 179
SWIDTH 594 0
DWIDTH 19 0
BBX 2 10 8 0
VVECTOR 9 27
SWIDTH1 0 -1094
DWIDTH1 0 -35
BITMAP 
C0
C0
C0
C0
C0
C0
C0
C0
C0
C0
ENDCHAR
STARTCHAR SF090000
ENCODING 180
SWIDTH 594 0
DWIDTH 19 0
BBX 10 35 0 -8
VVECTOR 1 27
SWIDTH1 0 -1094
DWIDTH1 0 -35
BITMAP 
00C0
00C0
00C0
00C0
00C0
00C0
00C0
00C0
00C0
00C0
00C0
00C0
00C0
00C0
FFC0
FFC0
00C0
00C0
00C0
00C0
00C0
00C0
00C0
00C0
00C0
00C0
00C0
00C0
00C0
00C0
00C0
00C0
00C0
00C0
00C0
ENDCHAR
STARTCHAR Aacute
ENCODING 181
SWIDTH 688 0
DWIDTH 22 0
BBX 22 27 0 0
VVECTOR 11 27
SWIDTH1 0 -1094
DWIDTH1 0 -35
BITMAP 
000C00
001C00
003000
004000
000000
002000
002000
003000
007000
007800
00F800
00F800
00FC00
01BC00
019E00
031E00
030F00
030F00
060F00
060780
0FFF80
0C03C0
0C03C0
1801E0
1801E0
3803F0
FC0FFC
ENDCHAR
STARTCHAR Acircumflex
ENCODING 182
SWIDTH 688 0
DWIDTH 22 0
BBX 22 27 0 0
VVECTOR 11 27
SWIDTH1 0 -1094
DWIDTH1 0 -35
BITMAP 
006000
00F000
019800
020400
000000
002000
002000
003000
007000
007800
00F800
00F800
00FC00
01BC00
019E00
031E00
030F00
030F00
060F00
060780
0FFF80
0C03C0
0C03C0
1801E0
1801E0
3803F0
FC0FFC
ENDCHAR
STARTCHAR Agrave
ENCODING 183
SWIDTH 688 0
DWIDTH 22 0
BBX 22 27 0 0
VVECTOR 11 27
SWIDTH1 0 -1094
DWIDTH1 0 -35
BITMAP 
00C000
00E000
003000
000800
000000
002000
002000
003000
007000
007800
00F800
00F800
00FC00
01BC00
019E00
031E00
030F00
030F00
060F00
060780
0FFF80
0C03C0
0C03C0
1801E0
1801E0
3803F0
FC0FFC
ENDCHAR
STARTCHAR copyright
ENCODING 184
SWIDTH 750 0
DWIDTH 24 0
BBX 22 22 1 0
VVECTOR 12 27
SWIDTH1 0 -1094
DWIDTH1 0 -35
BITMAP 
00FC00
03FF00
0F03C0
1C00E0
380070
300030
607D18
61E718
E1831C
C3810C
C3000C
C3000C
C3800C
E1811C
61E618
607C18
300030
380070
1C00E0
0F03C0
03FF00
00FC00
ENDCHAR
STARTCHAR SF230000
ENCODING 185
SWIDTH 594 0
DWIDTH 19 0
BBX 12 35 0 -8
VVECTOR 3 27
SWIDTH1 0 -1094
DWIDTH1 0 -35
BITMAP 
0330
0330
0330
0330
0330
0330
0330
0330
0330
0330
0330
0330
FF30
FF30
0030
0030
FF30
FF30
0330
0330
0330
0330
0330
0330
0330
0330
0330
0330
0330
0330
0330
0330
0330
0330
0330
ENDCHAR
STARTCHAR SF240000
ENCODING 186
SWIDTH 594 0
DWIDTH 19 0
BBX 6 35 6 -8
VVECTOR 9 27
SWIDTH1 0 -1094
DWIDTH1 0 -35
BITMAP 
CC
CC
CC
CC
CC
CC
CC
CC
CC
CC
CC
CC
CC
CC
CC
CC
CC
CC
CC
CC
CC
CC
CC
CC
CC
CC
CC
CC
CC
CC
CC
CC
CC
CC
CC
ENDCHAR
STARTCHAR SF250000
ENCODING 187
SWIDTH 594 0
DWIDTH 19 0
BBX 12 23 0 -8
VVECTOR 3 27
SWIDTH1 0 -1094
DWIDTH1 0 -35
BITMAP 
FFF0
FFF0
0030
0030
FF30
FF30
0330
0330
0330
0330
0330
0330
0330
0330
0330
0330
0330
0330
0330
0330
0330
0330
0330
ENDCHAR
STARTCHAR SF260000
ENCODING 188
SWIDTH 594 0
DWIDTH 19 0
BBX 12 18 0 9
VVECTOR 3 27
SWIDTH1 0 -1094
DWIDTH1 0 -35
BITMAP 
0330
0330
0330
0330
0330
0330
0330
0330
0330
0330
0330
0330
FF30
FF30
0030
0030
FFF0
FFF0
ENDCHAR
STARTCHAR cent
ENCODING 189
SWIDTH 500 0
DWIDTH 16 0
BBX 12 19 2 -1
VVECTOR 8 27
SWIDTH1 0 -1094
DWIDTH1 0 -35
BITMAP 
0030
0030
0060
07E0
1FE0
31F0
61F0
6370
E320
E600
E600
EC00
EC00
F800
7810
7820
3FC0
6F80
6000
ENDCHAR
STARTCHAR yen
ENCODING 190
SWIDTH 531 0
DWIDTH 17 0
BBX 17 22 0 0
VVECTOR 9 27
SWIDTH1 0 -1094
DWIDTH1 0 -35
BITMAP 
FE0F80
380300
1C0200
1C0400
0E0400
0E0800
071000
071000
03A000
03E000
3FFE00
01C000
01C000
3FFE00
01C000
01C000
01C000
01C000
01C000
01C000
03E000
07F000
ENDCHAR
STARTCHAR SF030000
ENCODING 191
SWIDTH 594 0
DWIDTH 19 0
BBX 10 21 0 -8
VVECTOR 1 27
SWIDTH1 0 -1094
DWIDTH1 0 -35
BITMAP 
FFC0
FFC0
00C0
00C0
00C0
00C0
00C0
00C0
00C0
00C0
00C0
00C0
00C0
00C0
00C0
00C0
00C0
00C0
00C0
00C0
00C0
ENDCHAR
STARTCHAR SF020000
ENCODING 192
SWIDTH 594 0
DWIDTH 19 0
BBX 11 16 8 11
VVECTOR 18 27
SWIDTH1 0 -1094
DWIDTH1 0 -35
BITMAP 
C000
C000
C000
C000
C000
C000
C000
C000
C000
C000
C000
C000
C000
C000
FFE0
FFE0
ENDCHAR
STARTCHAR SF070000
ENCODING 193
SWIDTH 594 0
DWIDTH 19 0
BBX 19 16 0 11
VVECTOR 10 27
SWIDTH1 0 -1094
DWIDTH1 0 -35
BITMAP 
00C000
00C000
00C000
00C000
00C000
00C000
00C000
00C000
00C000
00C000
00C000
00C000
00C000
00C000
FFFFE0
FFFFE0
ENDCHAR
STARTCHAR SF060000
ENCODING 194
SWIDTH 594 0
DWIDTH 19 0
BBX 19 21 0 -8
VVECTOR 10 27
SWIDTH1 0 -1094
DWIDTH1 0 -35
BITMAP 
FFFFE0
FFFFE0
00C000
00C000
00C000
00C000
00C000
00C000
00C000
00C000
00C000
00C000
00C000
00C000
00C000
00C000
00C000
00C000
00C000
00C000
00C000
ENDCHAR
STARTCHAR SF080000
ENCODING 195
SWIDTH 594 0
DWIDTH 19 0
BBX 11 35 8 -8
VVECTOR 18 27
SWIDTH1 0 -1094
DWIDTH1 0 -35
BITMAP 
C000
C000
C000
C000
C000
C000
C000
C000
C000
C000
C000
C000
C000
C000
FFE0
FFE0
C000
C000
C000
C000
C000
C000
C000
C000
C000
C000
C000
C000
C000
C000
C000
C000
C000
C000
C000
ENDCHAR
STARTCHAR SF100000
ENCODING 196
SWIDTH 594 0
DWIDTH 19 0
BBX 19 2 0 11
VVECTOR 10 27
SWIDTH1 0 -1094
DWIDTH1 0 -35
BITMAP 
FFFFE0
FFFFE0
ENDCHAR
STARTCHAR SF050000
ENCODING 197
SWIDTH 594 0
DWIDTH 19 0
BBX 19 35 0 -8
VVECTOR 10 27
SWIDTH1 0 -1094
DWIDTH1 0 -35
BITMAP 
00C000
00C000
00C000
00C000
00C000
00C000
00C000
00C000
00C000
00C000
00C000
00C000
00C000
00C000
FFFFE0
FFFFE0
00C000
00C000
00C000
00C000
00C000
00C000
00C000
00C000
00C000
00C000
00C000
00C000
00C000
00C000
00C000
00C000
00C000
00C000
00C000
ENDCHAR
STARTCHAR atilde
ENCODING 198
SWIDTH 438 0
DWIDTH 14 0
BBX 13 22 1 0
VVECTOR 8 27
SWIDTH1 0 -1094
DWIDTH1 0 -35
BITMAP 
3C20
7E60
C7C0
8380
0000
0000
0000
0F80
38C0
70E0
70E0
20E0
01E0
07E0
1CE0
38E0
70E0
70E0
70E0
78E0
3F78
1C30
ENDCHAR
STARTCHAR Atilde
ENCODING 199
SWIDTH 688 0
DWIDTH 22 0
BBX 22 27 0 0
VVECTOR 11 27
SWIDTH1 0 -1094
DWIDTH1 0 -35
BITMAP 
03C100
07E300
0C7E00
083C00
000000
002000
002000
003000
007000
007800
00F800
00F800
00FC00
01BC00
019E00
031E00
030F00
030F00
060F00
060780
0FFF80
0C03C0
0C03C0
1801E0
1801E0
3803F0
FC0FFC
ENDCHAR
STARTCHAR SF380000
ENCODING 200
SWIDTH 594 0
DWIDTH 19 0
BBX 13 18 6 9
VVECTOR 16 27
SWIDTH1 0 -1094
DWIDTH1 0 -35
BITMAP 
CC00
CC00
CC00
CC00
CC00
CC00
CC00
CC00
CC00
CC00
CC00
CC00
CFF8
CFF8
C000
C000
FFF8
FFF8
ENDCHAR
STARTCHAR SF390000
ENCODING 201
SWIDTH 594 0
DWIDTH 19 0
BBX 13 23 6 -8
VVECTOR 16 27
SWIDTH1 0 -1094
DWIDTH1 0 -35
BITMAP 
FFF8
FFF8
C000
C000
CFF8
CFF8
CC00
CC00
CC00
CC00
CC00
CC00
CC00
CC00
CC00
CC00
CC00
CC00
CC00
CC00
CC00
CC00
CC00
ENDCHAR
STARTCHAR SF400000
ENCODING 202
SWIDTH 594 0
DWIDTH 19 0
BBX 19 18 0 9
VVECTOR 10 27
SWIDTH1 0 -1094
DWIDTH1 0 -35
BITMAP 
033000
033000
033000
033000
033000
033000
033000
033000
033000
033000
033000
033000
FF3FE0
FF3FE0
000000
000000
FFFFE0
FFFFE0
ENDCHAR
STARTCHAR SF410000
ENCODING 203
SWIDTH 594 0
DWIDTH 19 0
BBX 19 23 0 -8
VVECTOR 10 27
SWIDTH1 0 -1094
DWIDTH1 0 -35
BITMAP 
FFFFE0
FFFFE0
000000
000000
FF3FE0
FF3FE0
033000
033000
033000
033000
033000
033000
033000
033000
033000
033000
033000
033000
033000
033000
033000
033000
033000
ENDCHAR
STARTCHAR SF420000
ENCODING 204
SWIDTH 594 0
DWIDTH 19 0
BBX 13 35 6 -8
VVECTOR 16 27
SWIDTH1 0 -1094
DWIDTH1 0 -35
BITMAP 
CC00
CC00
CC00
CC00
CC00
CC00
CC00
CC00
CC00
CC00
CC00
CC00
CFF8
CFF8
C000
C000
CFF8
CFF8
CC00
CC00
CC00
CC00
CC00
CC00
CC00
CC00
CC00
CC00
CC00
CC00
CC00
CC00
CC00
CC00
CC00
ENDCHAR
STARTCHAR SF430000
ENCODING 205
SWIDTH 594 0
DWIDTH 19 0
BBX 19 6 0 9
VVECTOR 10 27
SWIDTH1 0 -1094
DWIDTH1 0 -35
BITMAP 
FFFFE0
FFFFE0
000000
000000
FFFFE0
FFFFE0
ENDCHAR
STARTCHAR SF440000
ENCODING 206
SWIDTH 594 0
DWIDTH 19 0
BBX 19 35 0 -8
VVECTOR 10 27
SWIDTH1 0 -1094
DWIDTH1 0 -35
BITMAP 
033000
033000
033000
033000
033000
033000
033000
033000
033000
033000
033000
033000
FF3FE0
FF3FE0
000000
000000
FF3FE0
FF3FE0
033000
033000
033000
033000
033000
033000
033000
033000
033000
033000
033000
033000
033000
033000
033000
033000
033000
ENDCHAR
STARTCHAR currency
ENCODING 207
SWIDTH 500 0
DWIDTH 16 0
BBX 14 13 1 10
VVECTOR 8 27
SWIDTH1 0 -1094
DWIDTH1 0 -35
BITMAP 
4788
FFFC
7CF8
3030
7038
6018
6018
6018
7038
3030
7CF8
FFFC
4788
ENDCHAR
STARTCHAR eth
ENCODING 208
SWIDTH 531 0
DWIDTH 17 0
BBX 14 23 2 0
VVECTOR 10 27
SWIDTH1 0 -1094
DWIDTH1 0 -35
BITMAP 
7180
3B00
1E00
0F00
1B80
31C0
00E0
0070
07F0
1CF8
3078
7038
603C
E01C
E01C
E01C
E01C
E01C
E018
7038
7830
3CE0
0F80
ENDCHAR
STARTCHAR Eth
ENCODING 209
SWIDTH 719 0
DWIDTH 23 0
BBX 20 22 1 0
VVECTOR 11 27
SWIDTH1 0 -1094
DWIDTH1 0 -35
BITMAP 
FFFC00
3E1F00
1C0780
1C03C0
1C01C0
1C01E0
1C00E0
1C00F0
1C00F0
1C00F0
FF80F0
FF80F0
1C00F0
1C00F0
1C00F0
1C00E0
1C01E0
1C01C0
1C03C0
1C0780
3E1F00
FFFC00
ENDCHAR
STARTCHAR Ecircumflex
ENCODING 210
SWIDTH 625 0
DWIDTH 20 0
BBX 18 27 1 0
VVECTOR 10 27
SWIDTH1 0 -1094
DWIDTH1 0 -35
BITMAP 
00C000
01E000
033000
040800
000000
FFFF00
3E0300
1C0100
1C0100
1C0000
1C0000
1C0000
1C0400
1C0400
1C0C00
1FFC00
1C0C00
1C0400
1C0400
1C0000
1C0000
1C0000
1C0000
1C0040
1C00C0
3E0380
FFFF80
ENDCHAR
STARTCHAR Edieresis
ENCODING 211
SWIDTH 625 0
DWIDTH 20 0
BBX 18 27 1 0
VVECTOR 10 27
SWIDTH1 0 -1094
DWIDTH1 0 -35
BITMAP 
080800
1C1C00
1C1C00
080800
000000
FFFF00
3E0300
1C0100
1C0100
1C0000
1C0000
1C0000
1C0400
1C0400
1C0C00
1FFC00
1C0C00
1C0400
1C0400
1C0000
1C0000
1C0000
1C0000
1C0040
1C00C0
3E0380
FFFF80
ENDCHAR
STARTCHAR Egrave
ENCODING 212
SWIDTH 625 0
DWIDTH 20 0
BBX 18 27 1 0
VVECTOR 10 27
SWIDTH1 0 -1094
DWIDTH1 0 -35
BITMAP 
030000
038000
00C000
002000
000000
FFFF00
3E0300
1C0100
1C0100
1C0000
1C0000
1C0000
1C0400
1C0400
1C0C00
1FFC00
1C0C00
1C0400
1C0400
1C0000
1C0000
1C0000
1C0000
1C0040
1C00C0
3E0380
FFFF80
ENDCHAR
STARTCHAR Euro
ENCODING 213
SWIDTH 281 0
DWIDTH 9 0
BBX 6 15 2 0
VVECTOR 6 27
SWIDTH1 0 -1094
DWIDTH1 0 -35
BITMAP 
30
F0
30
30
30
30
30
30
30
30
30
30
30
30
FC
ENDCHAR
STARTCHAR Iacute
ENCODING 214
SWIDTH 344 0
DWIDTH 11 0
BBX 9 27 1 0
VVECTOR 6 27
SWIDTH1 0 -1094
DWIDTH1 0 -35
BITMAP 
0600
0E00
1800
2000
0000
FF80
3E00
1C00
1C00
1C00
1C00
1C00
1C00
1C00
1C00
1C00
1C00
1C00
1C00
1C00
1C00
1C00
1C00
1C00
1C00
3E00
FF80
ENDCHAR
STARTCHAR Icircumflex
ENCODING 215
SWIDTH 344 0
DWIDTH 11 0
BBX 9 27 1 0
VVECTOR 6 27
SWIDTH1 0 -1094
DWIDTH1 0 -35
BITMAP 
1800
3C00
6600
8100
0000
FF80
3E00
1C00
1C00
1C00
1C00
1C00
1C00
1C00
1C00
1C00
1C00
1C00
1C00
1C00
1C00
1C00
1C00
1C00
1C00
3E00
FF80
ENDCHAR
STARTCHAR Idieresis
ENCODING 216
SWIDTH 344 0
DWIDTH 11 0
BBX 9 27 1 0
VVECTOR 6 27
SWIDTH1 0 -1094
DWIDTH1 0 -35
BITMAP 
4100
E380
E380
4100
0000
FF80
3E00
1C00
1C00
1C00
1C00
1C00
1C00
1C00
1C00
1C00
1C00
1C00
1C00
1C00
1C00
1C00
1C00
1C00
1C00
3E00
FF80
ENDCHAR
STARTCHAR SF040000
ENCODING 217
SWIDTH 594 0
DWIDTH 19 0
BBX 10 16 0 11
VVECTOR 1 27
SWIDTH1 0 -1094
DWIDTH1 0 -35
BITMAP 
00C0
00C0
00C0
00C0
00C0
00C0
00C0
00C0
00C0
00C0
00C0
00C0
00C0
00C0
FFC0
FFC0
ENDCHAR
STARTCHAR SF010000
ENCODING 218
SWIDTH 594 0
DWIDTH 19 0
BBX 11 21 8 -8
VVECTOR 18 27
SWIDTH1 0 -1094
DWIDTH1 0 -35
BITMAP 
FFE0
FFE0
C000
C000
C000
C000
C000
C000
C000
C000
C000
C000
C000
C000
C000
C000
C000
C000
C000
C000
C000
ENDCHAR
STARTCHAR block
ENCODING 219
SWIDTH 594 0
DWIDTH 19 0
BBX 19 35 0 -8
VVECTOR 10 27
SWIDTH1 0 -1094
DWIDTH1 0 -35
BITMAP 
FFFFE0
FFFFE0
FFFFE0
FFFFE0
FFFFE0
FFFFE0
FFFFE0
FFFFE0
FFFFE0
FFFFE0
FFFFE0
FFFFE0
FFFFE0
FFFFE0
FFFFE0
FFFFE0
FFFFE0
FFFFE0
FFFFE0
FFFFE0
FFFFE0
FFFFE0
FFFFE0
FFFFE0
FFFFE0
FFFFE0
FFFFE0
FFFFE0
FFFFE0
FFFFE0
FFFFE0
FFFFE0
FFFFE0
FFFFE0
FFFFE0
ENDCHAR
STARTCHAR dnblock
ENCODING 220
SWIDTH 594 0
DWIDTH 19 0
BBX 19 20 0 -8
VVECTOR 10 27
SWIDTH1 0 -1094
DWIDTH1 0 -35
BITMAP 
FFFFE0
FFFFE0
FFFFE0
FFFFE0
FFFFE0
FFFFE0
FFFFE0
FFFFE0
FFFFE0
FFFFE0
FFFFE0
FFFFE0
FFFFE0
FFFFE0
FFFFE0
FFFFE0
FFFFE0
FFFFE0
FFFFE0
FFFFE0
ENDCHAR
STARTCHAR brokenbar
ENCODING 221
SWIDTH 281 0
DWIDTH 9 0
BBX 3 23 3 0
VVECTOR 5 27
SWIDTH1 0 -1094
DWIDTH1 0 -35
BITMAP 
E0
E0
E0
E0
E0
E0
E0
E0
E0
00
00
00
00
00
E0
E0
E0
E0
E0
E0
E0
E0
E0
ENDCHAR
STARTCHAR Igrave
ENCODING 222
SWIDTH 344 0
DWIDTH 11 0
BBX 9 27 1 0
VVECTOR 6 27
SWIDTH1 0 -1094
DWIDTH1 0 -35
BITMAP 
3000
3800
0C00
0200
0000
FF80
3E00
1C00
1C00
1C00
1C00
1C00
1C00
1C00
1C00
1C00
1C00
1C00
1C00
1C00
1C00
1C00
1C00
1C00
1C00
3E00
FF80
ENDCHAR
STARTCHAR upblock
ENCODING 223
SWIDTH 594 0
DWIDTH 19 0
BBX 19 15 0 12
VVECTOR 10 27
SWIDTH1 0 -1094
DWIDTH1 0 -35
BITMAP 
FFFFE0
FFFFE0
FFFFE0
FFFFE0
FFFFE0
FFFFE0
FFFFE0
FFFFE0
FFFFE0
FFFFE0
FFFFE0
FFFFE0
FFFFE0
FFFFE0
FFFFE0
ENDCHAR
STARTCHAR Oacute
ENCODING 224
SWIDTH 719 0
DWIDTH 23 0
BBX 19 27 2 0
VVECTOR 12 27
SWIDTH1 0 -1094
DWIDTH1 0 -35
BITMAP 
003000
007000
00C000
010000
000000
03F800
0F1E00
1C0700
380380
380380
7001C0
7001C0
F001E0
F001E0
F001E0
F001E0
F001E0
F001E0
F001E0
F001E0
7001C0
7001C0
380380
380380
1C0700
0F1E00
03F800
ENDCHAR
STARTCHAR germandbls
ENCODING 225
SWIDTH 500 0
DWIDTH 16 0
BBX 15 22 0 0
VVECTOR 7 27
SWIDTH1 0 -1094
DWIDTH1 0 -35
BITMAP 
03C0
0EF0
1C38
1838
381C
381C
381C
3818
3838
3870
39F0
3838
381C
381C
380E
380E
380E
380E
380C
399C
39B8
F8F0
ENDCHAR
STARTCHAR Ocircumflex
ENCODING 226
SWIDTH 719 0
DWIDTH 23 0
BBX 19 27 2 0
VVECTOR 12 27
SWIDTH1 0 -1094
DWIDTH1 0 -35
BITMAP 
00C000
01E000
033000
040800
000000
03F800
0F1E00
1C0700
380380
380380
7001C0
7001C0
F001E0
F001E0
F001E0
F001E0
F001E0
F001E0
F001E0
F001E0
7001C0
7001C0
380380
380380
1C0700
0F1E00
03F800
ENDCHAR
STARTCHAR Ograve
ENCODING 227
SWIDTH 719 0
DWIDTH 23 0
BBX 19 27 2 0
VVECTOR 12 27
SWIDTH1 0 -1094
DWIDTH1 0 -35
BITMAP 
030000
038000
00C000
002000
000000
03F800
0F1E00
1C0700
380380
380380
7001C0
7001C0
F001E0
F001E0
F001E0
F001E0
F001E0
F001E0
F001E0
F001E0
7001C0
7001C0
380380
380380
1C0700
0F1E00
03F800
ENDCHAR
STARTCHAR otilde
ENCODING 228
SWIDTH 531 0
DWIDTH 17 0
BBX 14 22 2 0
VVECTOR 10 27
SWIDTH1 0 -1094
DWIDTH1 0 -35
BITMAP 
1E08
3F18
63F0
41E0
0000
0000
0000
07C0
1CF0
3078
7038
603C
E01C
E01C
E01C
E01C
E01C
E018
7038
7830
3CE0
0F80
ENDCHAR
STARTCHAR Otilde
ENCODING 229
SWIDTH 719 0
DWIDTH 23 0
BBX 19 27 2 0
VVECTOR 12 27
SWIDTH1 0 -1094
DWIDTH1 0 -35
BITMAP 
078200
0FC600
18FC00
103800
000000
03F800
0F1E00
1C0700
380380
380380
7001C0
7001C0
F001E0
F001E0
F001E0
F001E0
F001E0
F001E0
F001E0
F001E0
7001C0
7001C0
380380
380380
1C0700
0F1E00
03F800
ENDCHAR
STARTCHAR mu
ENCODING 230
SWIDTH 500 0
DWIDTH 16 0
BBX 15 22 1 -7
VVECTOR 9 27
SWIDTH1 0 -1094
DWIDTH1 0 -35
BITMAP 
F8F8
3838
3838
3838
3838
3838
3838
3838
3838
3838
3838
3838
3C7E
3FB8
3F20
3800
3800
3800
3800
3800
3800
3800
ENDCHAR
STARTCHAR thorn
ENCODING 231
SWIDTH 531 0
DWIDTH 17 0
BBX 15 31 1 -8
VVECTOR 9 27
SWIDTH1 0 -1094
DWIDTH1 0 -35
BITMAP 
0800
3800
F800
3800
3800
3800
3800
3800
3800
39E0
3EF8
383C
381C
381E
380E
380E
380E
380E
381C
381C
3838
3CF0
3BC0
3800
3800
3800
3800
3800
3800
3800
FE00
ENDCHAR
STARTCHAR Thorn
ENCODING 232
SWIDTH 562 0
DWIDTH 18 0
BBX 17 22 1 0
VVECTOR 10 27
SWIDTH1 0 -1094
DWIDTH1 0 -35
BITMAP 
FF8000
3E0000
1C0000
1C0000
1C0000
1FF800
1E1E00
1C0F00
1C0780
1C0780
1C0780
1C0780
1C0700
1C0F00
1E1E00
1FF800
1C0000
1C0000
1C0000
1C0000
3E0000
FF8000
ENDCHAR
STARTCHAR Uacute
ENCODING 233
SWIDTH 719 0
DWIDTH 23 0
BBX 21 27 1 0
VVECTOR 12 27
SWIDTH1 0 -1094
DWIDTH1 0 -35
BITMAP 
000C00
001C00
003000
004000
000000
FF83F8
3E00E0
1C0040
1C0040
1C0040
1C0040
1C0040
1C0040
1C0040
1C0040
1C0040
1C0040
1C0040
1C0040
1C0040
1C0040
1C0040
1E0040
0E0080
0F0080
07C300
01FC00
ENDCHAR
STARTCHAR Ucircumflex
ENCODING 234
SWIDTH 719 0
DWIDTH 23 0
BBX 21 27 1 0
VVECTOR 12 27
SWIDTH1 0 -1094
DWIDTH1 0 -35
BITMAP 
003000
007800
00CC00
010200
000000
FF83F8
3E00E0
1C0040
1C0040
1C0040
1C0040
1C0040
1C0040
1C0040
1C0040
1C0040
1C0040
1C0040
1C0040
1C0040
1C0040
1C0040
1E0040
0E0080
0F0080
07C300
01FC00
ENDCHAR
STARTCHAR Ugrave
ENCODING 235
SWIDTH 719 0
DWIDTH 23 0
BBX 21 27 1 0
VVECTOR 12 27
SWIDTH1 0 -1094
DWIDTH1 0 -35
BITMAP 
00C000
00E000
003000
000800
000000
FF83F8
3E00E0
1C0040
1C0040
1C0040
1C0040
1C0040
1C0040
1C0040
1C0040
1C0040
1C0040
1C0040
1C0040
1C0040
1C0040
1C0040
1E0040
0E0080
0F0080
07C300
01FC00
ENDCHAR
STARTCHAR yacute
ENCODING 236
SWIDTH 531 0
DWIDTH 17 0
BBX 16 30 1 -8
VVECTOR 10 27
SWIDTH1 0 -1094
DWIDTH1 0 -35
BITMAP 
00F0
01C0
0300
0200
0000
0000
0000
FE3F
380C
3808
1C08
1C10
0E10
0E10
0720
0720
03A0
03C0
01C0
0180
0080
0080
0100
0100
0200
0200
0400
6C00
F800
7000
ENDCHAR
STARTCHAR Yacute
ENCODING 237
SWIDTH 719 0
DWIDTH 23 0
BBX 22 27 0 0
VVECTOR 11 27
SWIDTH1 0 -1094
DWIDTH1 0 -35
BITMAP 
000600
000E00
001800
002000
000000
FF81FC
3E0070
0F0020
070040
078040
03C080
01C100
01E100
00F200
007C00
007C00
003800
003800
003800
003800
003800
003800
003800
003800
003800
007C00
01FF00
ENDCHAR
STARTCHAR macron
ENCODING 238
SWIDTH 500 0
DWIDTH 16 0
BBX 16 2 0 22
VVECTOR 8 27
SWIDTH1 0 -1094
DWIDTH1 0 -35
BITMAP 
FFFF
FFFF
ENDCHAR
STARTCHAR acute
ENCODING 239
SWIDTH 344 0
DWIDTH 11 0
BBX 5 4 3 18
VVECTOR 6 27
SWIDTH1 0 -1094
DWIDTH1 0 -35
BITMAP 
18
38
60
80
ENDCHAR
STARTCHAR uni00AD
ENCODING 240
SWIDTH 313 0
DWIDTH 10 0
BBX 8 2 1 9
VVECTOR 5 27
SWIDTH1 0 -1094
DWIDTH1 0 -35
BITMAP 
FF
FF
ENDCHAR
STARTCHAR plusminus
ENCODING 241
SWIDTH 562 0
DWIDTH 18 0
BBX 16 22 1 0
VVECTOR 9 27
SWIDTH1 0 -1094
DWIDTH1 0 -35
BITMAP 
0180
0180
0180
0180
0180
0180
0180
FFFF
FFFF
0180
0180
0180
0180
0180
0180
0180
0000
0000
0000
0000
FFFF
FFFF
ENDCHAR
STARTCHAR underscoredbl
ENCODING 242
SWIDTH 500 0
DWIDTH 16 0
BBX 16 7 0 -8
VVECTOR 8 27
SWIDTH1 0 -1094
DWIDTH1 0 -35
BITMAP 
FFFF
FFFF
0000
0000
FFFF
FFFF
FFFF
ENDCHAR
STARTCHAR threequarters
ENCODING 243
SWIDTH 688 0
DWIDTH 22 0
BBX 18 23 1 0
VVECTOR 9 27
SWIDTH1 0 -1094
DWIDTH1 0 -35
BITMAP 
7C00C0
CE0180
860180
0E0300
3C0600
0C0600
060C00
061800
861800
CE3000
7C6000
006000
00C000
018180
018380
030580
060980
061180
0C3FC0
183FC0
180180
300180
300180
ENDCHAR
STARTCHAR paragraph
ENCODING 244
SWIDTH 438 0
DWIDTH 14 0
BBX 12 27 1 -6
VVECTOR 7 27
SWIDTH1 0 -1094
DWIDTH1 0 -35
BITMAP 
1FF0
7CC0
7CC0
FCC0
FCC0
FCC0
FCC0
FCC0
7CC0
7CC0
1CC0
0CC0
0CC0
0CC0
0CC0
0CC0
0CC0
0CC0
0CC0
0CC0
0CC0
0CC0
0CC0
0CC0
0CC0
0CC0
0CC0
ENDCHAR
STARTCHAR section
ENCODING 245
SWIDTH 500 0
DWIDTH 16 0
BBX 12 26 2 -3
VVECTOR 8 27
SWIDTH1 0 -1094
DWIDTH1 0 -35
BITMAP 
0F80
38E0
30E0
6040
6000
7000
3800
1E00
3F00
67C0
41E0
C0E0
E070
E070
7030
7820
3E60
0FC0
0780
01C0
00E0
0060
2060
70C0
71C0
1F00
ENDCHAR
STARTCHAR divide
ENCODING 246
SWIDTH 562 0
DWIDTH 18 0
BBX 12 14 3 3
VVECTOR 9 27
SWIDTH1 0 -1094
DWIDTH1 0 -35
BITMAP 
0600
0F00
0F00
0600
0000
0000
FFF0
FFF0
0000
0000
0600
0F00
0F00
0600
ENDCHAR
STARTCHAR cedilla
ENCODING 247
SWIDTH 344 0
DWIDTH 11 0
BBX 7 7 2 -7
VVECTOR 6 27
SWIDTH1 0 -1094
DWIDTH1 0 -35
BITMAP 
18
18
30
3C
06
06
FC
ENDCHAR
STARTCHAR degree
ENCODING 248
SWIDTH 344 0
DWIDTH 11 0
BBX 8 8 2 15
VVECTOR 7 27
SWIDTH1 0 -1094
DWIDTH1 0 -35
BITMAP 
3C
7E
E7
C3
C3
E7
7E
3C
ENDCHAR
STARTCHAR dieresis
ENCODING 249
SWIDTH 344 0
DWIDTH 11 0
BBX 9 4 1 18
VVECTOR 6 27
SWIDTH1 0 -1094
DWIDTH1 0 -35
BITMAP 
4100
E380
E380
4100
ENDCHAR
STARTCHAR periodcentered
ENCODING 250
SWIDTH 250 0
DWIDTH 8 0
BBX 4 4 2 11
VVECTOR 4 27
SWIDTH1 0 -1094
DWIDTH1 0 -35
BITMAP 
60
F0
F0
60
ENDCHAR
STARTCHAR uni00B9
ENCODING 251
SWIDTH 250 0
DWIDTH 8 0
BBX 6 10 1 13
VVECTOR 4 27
SWIDTH1 0 -1094
DWIDTH1 0 -35
BITMAP 
30
F0
30
30
30
30
30
30
78
FC
ENDCHAR
STARTCHAR uni00B3
ENCODING 252
SWIDTH 250 0
DWIDTH 8 0
BBX 7 10 1 13
VVECTOR 5 27
SWIDTH1 0 -1094
DWIDTH1 0 -35
BITMAP 
7C
CE
86
0C
3C
0E
06
86
CE
7C
ENDCHAR
STARTCHAR uni00B2
ENCODING 253
SWIDTH 250 0
DWIDTH 8 0
BBX 8 10 0 13
VVECTOR 4 27
SWIDTH1 0 -1094
DWIDTH1 0 -35
BITMAP 
7C
86
06
06
0C
18
30
61
FE
FC
ENDCHAR
STARTCHAR filledbox
ENCODING 254
SWIDTH 656 0
DWIDTH 21 0
BBX 21 21 0 0
VVECTOR 11 27
SWIDTH1 0 -1094
DWIDTH1 0 -35
BITMAP 
FFFFF8
FFFFF8
FFFFF8
FFFFF8
FFFFF8
FFFFF8
FFFFF8
FFFFF8
FFFFF8
FFFFF8
FFFFF8
FFFFF8
FFFFF8
FFFFF8
FFFFF8
FFFFF8
FFFFF8
FFFFF8
FFFFF8
FFFFF8
FFFFF8
ENDCHAR
STARTCHAR uni00A0
ENCODING 255
SWIDTH 250 0
DWIDTH 8 0
BBX 0 0 8 27
VVECTOR 12 27
SWIDTH1 0 -1094
DWIDTH1 0 -35
BITMAP 
ENDCHAR
STARTCHAR peseta
ENCODING 256
SWIDTH 1094 0
DWIDTH 35 0
BBX 31 21 2 0
VVECTOR 18 27
SWIDTH1 0 -1094
DWIDTH1 0 -35
BITMAP 
FFF00000
3C3C0000
1C0E0000
1C0F0000
1C070000
1C070000
1C070000
1C060000
1C0E2000
1C3C6000
1FF0E000
1C01F874
1C0060CC
1C0060C4
1C0060E0
1C006078
1C00603C
1C00608E
1C0064C6
3E0078E4
FF8030B8
ENDCHAR
STARTCHAR revlogicalnot
ENCODING 257
SWIDTH 562 0
DWIDTH 18 0
BBX 15 11 2 0
VVECTOR 10 27
SWIDTH1 0 -1094
DWIDTH1 0 -35
BITMAP 
FFFE
FFFE
C000
C000
C000
C000
C000
C000
C000
C000
C000
ENDCHAR
STARTCHAR SF190000
ENCODING 258
SWIDTH 594 0
DWIDTH 19 0
BBX 10 35 0 -8
VVECTOR 1 27
SWIDTH1 0 -1094
DWIDTH1 0 -35
BITMAP 
00C0
00C0
00C0
00C0
00C0
00C0
00C0
00C0
00C0
00C0
00C0
00C0
FFC0
FFC0
00C0
00C0
FFC0
FFC0
00C0
00C0
00C0
00C0
00C0
00C0
00C0
00C0
00C0
00C0
00C0
00C0
00C0
00C0
00C0
00C0
00C0
ENDCHAR
STARTCHAR SF200000
ENCODING 259
SWIDTH 594 0
DWIDTH 19 0
BBX 12 35 0 -8
VVECTOR 3 27
SWIDTH1 0 -1094
DWIDTH1 0 -35
BITMAP 
0330
0330
0330
0330
0330
0330
0330
0330
0330
0330
0330
0330
0330
0330
FF30
FF30
0330
0330
0330
0330
0330
0330
0330
0330
0330
0330
0330
0330
0330
0330
0330
0330
0330
0330
0330
ENDCHAR
STARTCHAR SF210000
ENCODING 260
SWIDTH 594 0
DWIDTH 19 0
BBX 12 21 0 -8
VVECTOR 3 27
SWIDTH1 0 -1094
DWIDTH1 0 -35
BITMAP 
FFF0
FFF0
0330
0330
0330
0330
0330
0330
0330
0330
0330
0330
0330
0330
0330
0330
0330
0330
0330
0330
0330
ENDCHAR
STARTCHAR SF220000
ENCODING 261
SWIDTH 594 0
DWIDTH 19 0
BBX 10 23 0 -8
VVECTOR 1 27
SWIDTH1 0 -1094
DWIDTH1 0 -35
BITMAP 
FFC0
FFC0
00C0
00C0
FFC0
FFC0
00C0
00C0
00C0
00C0
00C0
00C0
00C0
00C0
00C0
00C0
00C0
00C0
00C0
00C0
00C0
00C0
00C0
ENDCHAR
STARTCHAR SF270000
ENCODING 262
SWIDTH 594 0
DWIDTH 19 0
BBX 12 16 0 11
VVECTOR 3 27
SWIDTH1 0 -1094
DWIDTH1 0 -35
BITMAP 
0330
0330
0330
0330
0330
0330
0330
0330
0330
0330
0330
0330
0330
0330
FFF0
FFF0
ENDCHAR
STARTCHAR SF280000
ENCODING 263
SWIDTH 594 0
DWIDTH 19 0
BBX 10 18 0 9
VVECTOR 1 27
SWIDTH1 0 -1094
DWIDTH1 0 -35
BITMAP 
00C0
00C0
00C0
00C0
00C0
00C0
00C0
00C0
00C0
00C0
00C0
00C0
FFC0
FFC0
00C0
00C0
FFC0
FFC0
ENDCHAR
STARTCHAR SF360000
ENCODING 264
SWIDTH 594 0
DWIDTH 19 0
BBX 11 35 8 -8
VVECTOR 18 27
SWIDTH1 0 -1094
DWIDTH1 0 -35
BITMAP 
C000
C000
C000
C000
C000
C000
C000
C000
C000
C000
C000
C000
FFE0
FFE0
C000
C000
FFE0
FFE0
C000
C000
C000
C000
C000
C000
C000
C000
C000
C000
C000
C000
C000
C000
C000
C000
C000
ENDCHAR
STARTCHAR SF370000
ENCODING 265
SWIDTH 594 0
DWIDTH 19 0
BBX 13 35 6 -8
VVECTOR 16 27
SWIDTH1 0 -1094
DWIDTH1 0 -35
BITMAP 
CC00
CC00
CC00
CC00
CC00
CC00
CC00
CC00
CC00
CC00
CC00
CC00
CC00
CC00
CFF8
CFF8
CC00
CC00
CC00
CC00
CC00
CC00
CC00
CC00
CC00
CC00
CC00
CC00
CC00
CC00
CC00
CC00
CC00
CC00
CC00
ENDCHAR
STARTCHAR SF450000
ENCODING 266
SWIDTH 594 0
DWIDTH 19 0
BBX 19 18 0 9
VVECTOR 10 27
SWIDTH1 0 -1094
DWIDTH1 0 -35
BITMAP 
00C000
00C000
00C000
00C000
00C000
00C000
00C000
00C000
00C000
00C000
00C000
00C000
FFFFE0
FFFFE0
000000
000000
FFFFE0
FFFFE0
ENDCHAR
STARTCHAR SF460000
ENCODING 267
SWIDTH 594 0
DWIDTH 19 0
BBX 19 16 0 11
VVECTOR 10 27
SWIDTH1 0 -1094
DWIDTH1 0 -35
BITMAP 
033000
033000
033000
033000
033000
033000
033000
033000
033000
033000
033000
033000
033000
033000
FFFFE0
FFFFE0
ENDCHAR
STARTCHAR SF470000
ENCODING 268
SWIDTH 594 0
DWIDTH 19 0
BBX 19 23 0 -8
VVECTOR 10 27
SWIDTH1 0 -1094
DWIDTH1 0 -35
BITMAP 
FFFFE0
FFFFE0
000000
000000
FFFFE0
FFFFE0
00C000
00C000
00C000
00C000
00C000
00C000
00C000
00C000
00C000
00C000
00C000
00C000
00C000
00C000
00C000
00C000
00C000
ENDCHAR
STARTCHAR SF480000
ENCODING 269
SWIDTH 594 0
DWIDTH 19 0
BBX 19 21 0 -8
VVECTOR 10 27
SWIDTH1 0 -1094
DWIDTH1 0 -35
BITMAP 
FFFFE0
FFFFE0
033000
033000
033000
033000
033000
033000
033000
033000
033000
033000
033000
033000
033000
033000
033000
033000
033000
033000
033000
ENDCHAR
STARTCHAR SF490000
ENCODING 270
SWIDTH 594 0
DWIDTH 19 0
BBX 13 16 6 11
VVECTOR 16 27
SWIDTH1 0 -1094
DWIDTH1 0 -35
BITMAP 
CC00
CC00
CC00
CC00
CC00
CC00
CC00
CC00
CC00
CC00
CC00
CC00
CC00
CC00
FFF8
FFF8
ENDCHAR
STARTCHAR SF500000
ENCODING 271
SWIDTH 594 0
DWIDTH 19 0
BBX 11 18 8 9
VVECTOR 18 27
SWIDTH1 0 -1094
DWIDTH1 0 -35
BITMAP 
C000
C000
C000
C000
C000
C000
C000
C000
C000
C000
C000
C000
FFE0
FFE0
C000
C000
FFE0
FFE0
ENDCHAR
STARTCHAR SF510000
ENCODING 272
SWIDTH 594 0
DWIDTH 19 0
BBX 11 23 8 -8
VVECTOR 18 27
SWIDTH1 0 -1094
DWIDTH1 0 -35
BITMAP 
FFE0
FFE0
C000
C000
FFE0
FFE0
C000
C000
C000
C000
C000
C000
C000
C000
C000
C000
C000
C000
C000
C000
C000
C000
C000
ENDCHAR
STARTCHAR SF520000
ENCODING 273
SWIDTH 594 0
DWIDTH 19 0
BBX 13 21 6 -8
VVECTOR 16 27
SWIDTH1 0 -1094
DWIDTH1 0 -35
BITMAP 
FFF8
FFF8
CC00
CC00
CC00
CC00
CC00
CC00
CC00
CC00
CC00
CC00
CC00
CC00
CC00
CC00
CC00
CC00
CC00
CC00
CC00
ENDCHAR
STARTCHAR SF530000
ENCODING 274
SWIDTH 594 0
DWIDTH 19 0
BBX 19 35 0 -8
VVECTOR 10 27
SWIDTH1 0 -1094
DWIDTH1 0 -35
BITMAP 
033000
033000
033000
033000
033000
033000
033000
033000
033000
033000
033000
033000
033000
033000
FFFFE0
FFFFE0
033000
033000
033000
033000
033000
033000
033000
033000
033000
033000
033000
033000
033000
033000
033000
033000
033000
033000
033000
ENDCHAR
STARTCHAR SF540000
ENCODING 275
SWIDTH 594 0
DWIDTH 19 0
BBX 19 35 0 -8
VVECTOR 10 27
SWIDTH1 0 -1094
DWIDTH1 0 -35
BITMAP 
00C000
00C000
00C000
00C000
00C000
00C000
00C000
00C000
00C000
00C000
00C000
00C000
FFFFE0
FFFFE0
00C000
00C000
FFFFE0
FFFFE0
00C000
00C000
00C000
00C000
00C000
00C000
00C000
00C000
00C000
00C000
00C000
00C000
00C000
00C000
00C000
00C000
00C000
ENDCHAR
STARTCHAR lfblock
ENCODING 276
SWIDTH 594 0
DWIDTH 19 0
BBX 10 35 0 -8
VVECTOR 1 27
SWIDTH1 0 -1094
DWIDTH1 0 -35
BITMAP 
FFC0
FFC0
FFC0
FFC0
FFC0
FFC0
FFC0
FFC0
FFC0
FFC0
FFC0
FFC0
FFC0
FFC0
FFC0
FFC0
FFC0
FFC0
FFC0
FFC0
FFC0
FFC0
FFC0
FFC0
FFC0
FFC0
FFC0
FFC0
FFC0
FFC0
FFC0
FFC0
FFC0
FFC0
FFC0
ENDCHAR
STARTCHAR rtblock
ENCODING 277
SWIDTH 594 0
DWIDTH 19 0
BBX 10 35 9 -8
VVECTOR 19 27
SWIDTH1 0 -1094
DWIDTH1 0 -35
BITMAP 
FFC0
FFC0
FFC0
FFC0
FFC0
FFC0
FFC0
FFC0
FFC0
FFC0
FFC0
FFC0
FFC0
FFC0
FFC0
FFC0
FFC0
FFC0
FFC0
FFC0
FFC0
FFC0
FFC0
FFC0
FFC0
FFC0
FFC0
FFC0
FFC0
FFC0
FFC0
FFC0
FFC0
FFC0
FFC0
ENDCHAR
STARTCHAR alpha
ENCODING 278
SWIDTH 594 0
DWIDTH 19 0
BBX 17 15 2 0
VVECTOR 12 27
SWIDTH1 0 -1094
DWIDTH1 0 -35
BITMAP 
070600
1FC600
38EC00
706C00
603C00
E03800
C01800
C01800
C01800
C01800
C03800
E03C00
606C00
70CF80
1F8700
ENDCHAR
STARTCHAR Gamma
ENCODING 279
SWIDTH 594 0
DWIDTH 19 0
BBX 17 21 1 0
VVECTOR 10 27
SWIDTH1 0 -1094
DWIDTH1 0 -35
BITMAP 
FFFF80
3C0780
1C0180
1C0080
1C0080
1C0000
1C0000
1C0000
1C0000
1C0000
1C0000
1C0000
1C0000
1C0000
1C0000
1C0000
1C0000
1C0000
1C0000
3E0000
FFC000
ENDCHAR
STARTCHAR pi
ENCODING 280
SWIDTH 562 0
DWIDTH 18 0
BBX 16 15 1 0
VVECTOR 9 27
SWIDTH1 0 -1094
DWIDTH1 0 -35
BITMAP 
3FFF
7FFF
4408
8418
0418
0418
0418
0418
0418
0418
0418
0C18
1C18
3C1F
380C
ENDCHAR
STARTCHAR Sigma
ENCODING 281
SWIDTH 594 0
DWIDTH 19 0
BBX 18 21 1 0
VVECTOR 11 27
SWIDTH1 0 -1094
DWIDTH1 0 -35
BITMAP 
FFFF00
780700
3C0300
1C0100
1E0100
0F0000
070000
078000
03C000
01C000
018000
030000
030000
060000
0C0000
0C0040
1800C0
300180
7FFF80
7FFF00
FFFF00
ENDCHAR
STARTCHAR sigma
ENCODING 282
SWIDTH 500 0
DWIDTH 16 0
BBX 15 15 1 0
VVECTOR 9 27
SWIDTH1 0 -1094
DWIDTH1 0 -35
BITMAP 
0FFE
3FFE
70E0
6030
E038
C018
C018
C018
C018
C018
E038
6030
7070
38E0
0F80
ENDCHAR
STARTCHAR tau
ENCODING 283
SWIDTH 438 0
DWIDTH 14 0
BBX 13 15 0 0
VVECTOR 6 27
SWIDTH1 0 -1094
DWIDTH1 0 -35
BITMAP 
1FF8
3FF8
6100
8300
0300
0300
0300
0300
0300
0300
0300
0300
0300
03E0
0180
ENDCHAR
STARTCHAR Phi
ENCODING 284
SWIDTH 781 0
DWIDTH 25 0
BBX 23 21 1 0
VVECTOR 13 27
SWIDTH1 0 -1094
DWIDTH1 0 -35
BITMAP 
01FF00
007C00
003800
07FFC0
1E38F0
383838
70381C
70381C
E0380E
E0380E
E0380E
E0380E
70381C
70381C
383838
1E38F0
07FFC0
003800
003800
007C00
01FF00
ENDCHAR
STARTCHAR Theta
ENCODING 285
SWIDTH 688 0
DWIDTH 22 0
BBX 19 21 2 0
VVECTOR 12 27
SWIDTH1 0 -1094
DWIDTH1 0 -35
BITMAP 
03F800
0F1E00
1C0700
380380
7001C0
7001C0
E000E0
E208E0
E208E0
E3F8E0
E3F8E0
E208E0
E208E0
E000E0
E000E0
7001C0
7001C0
380380
1C0700
0F1E00
03F800
ENDCHAR
STARTCHAR uni03A9
ENCODING 286
SWIDTH 719 0
DWIDTH 23 0
BBX 23 21 0 0
VVECTOR 12 27
SWIDTH1 0 -1094
DWIDTH1 0 -35
BITMAP 
00FE00
03C780
0701C0
0E00E0
1C0070
1C0070
380038
380038
380038
380038
380038
380038
380038
1C0070
1C0070
0E00E0
8600C2
C30186
7FC7FC
7FC7FC
7FC7FC
ENDCHAR
STARTCHAR delta
ENCODING 287
SWIDTH 531 0
DWIDTH 17 0
BBX 13 21 2 0
VVECTOR 9 27
SWIDTH1 0 -1094
DWIDTH1 0 -35
BITMAP 
3F80
61E0
7060
3800
1C00
0F00
0380
0FC0
38E0
7070
6030
E038
C018
C018
C018
C018
E038
6030
7070
38E0
0F80
ENDCHAR
STARTCHAR infinity
ENCODING 288
SWIDTH 719 0
DWIDTH 23 0
BBX 21 10 1 5
VVECTOR 12 27
SWIDTH1 0 -1094
DWIDTH1 0 -35
BITMAP 
1C01C0
7F07F0
638E30
C1DC18
C0F818
C0F818
C1DC18
638F30
7F07F0
1C01C0
ENDCHAR
STARTCHAR phi1
ENCODING 289
SWIDTH 562 0
DWIDTH 18 0
BBX 16 27 1 -6
VVECTOR 9 27
SWIDTH1 0 -1094
DWIDTH1 0 -35
BITMAP 
0180
0180
0180
0180
0180
0180
0FF0
399C
718E
6186
E187
C183
C183
C183
C183
C183
E187
6186
718E
399C
0FF0
0180
0180
0180
0180
0180
0180
ENDCHAR
STARTCHAR epsilon
ENCODING 290
SWIDTH 438 0
DWIDTH 14 0
BBX 12 15 1 0
VVECTOR 7 27
SWIDTH1 0 -1094
DWIDTH1 0 -35
BITMAP 
0F80
3FE0
70E0
6020
6000
3000
1F00
3F80
6000
C000
C000
C010
E030
7FE0
1F80
ENDCHAR
STARTCHAR intersection
ENCODING 291
SWIDTH 688 0
DWIDTH 22 0
BBX 16 19 3 0
VVECTOR 11 27
SWIDTH1 0 -1094
DWIDTH1 0 -35
BITMAP 
07E0
1FF8
381C
700E
6006
E007
C003
C003
C003
C003
C003
C003
C003
C003
C003
C003
C003
C003
C003
ENDCHAR
STARTCHAR equivalence
ENCODING 292
SWIDTH 562 0
DWIDTH 18 0
BBX 12 12 3 4
VVECTOR 9 27
SWIDTH1 0 -1094
DWIDTH1 0 -35
BITMAP 
FFF0
FFF0
0000
0000
0000
FFF0
FFF0
0000
0000
0000
FFF0
FFF0
ENDCHAR
STARTCHAR greaterequal
ENCODING 293
SWIDTH 562 0
DWIDTH 18 0
BBX 15 18 2 0
VVECTOR 10 27
SWIDTH1 0 -1094
DWIDTH1 0 -35
BITMAP 
8000
E000
F800
1F00
07C0
01F0
003C
001E
003C
01F0
07C0
1F00
F800
E000
8000
0000
FFFE
FFFE
ENDCHAR
STARTCHAR lessequal
ENCODING 294
SWIDTH 562 0
DWIDTH 18 0
BBX 15 18 1 0
VVECTOR 8 27
SWIDTH1 0 -1094
DWIDTH1 0 -35
BITMAP 
0002
000E
003E
01F0
07C0
1F00
7800
F000
7800
1F00
07C0
01F0
003E
000E
0002
0000
FFFE
FFFE
ENDCHAR
STARTCHAR integraltp
ENCODING 295
SWIDTH 719 0
DWIDTH 23 0
BBX 8 34 10 -7
VVECTOR 17 27
SWIDTH1 0 -1094
DWIDTH1 0 -35
BITMAP 
1E
3F
6F
67
E0
E0
E0
E0
E0
E0
E0
E0
E0
E0
E0
E0
E0
E0
E0
E0
E0
E0
E0
E0
E0
E0
E0
E0
E0
E0
E0
E0
E0
E0
ENDCHAR
STARTCHAR integralbt
ENCODING 296
SWIDTH 719 0
DWIDTH 23 0
BBX 8 34 5 -7
VVECTOR 7 27
SWIDTH1 0 -1094
DWIDTH1 0 -35
BITMAP 
07
07
07
07
07
07
07
07
07
07
07
07
07
07
07
07
07
07
07
07
07
07
07
07
07
07
07
07
07
07
E6
F6
FC
78
ENDCHAR
STARTCHAR approxequal
ENCODING 297
SWIDTH 531 0
DWIDTH 17 0
BBX 15 9 1 6
VVECTOR 9 27
SWIDTH1 0 -1094
DWIDTH1 0 -35
BITMAP 
3E06
7F8E
E3FC
C0F8
0000
3E06
7F8E
E3FC
C0F8
ENDCHAR
STARTCHAR uni2219
ENCODING 298
SWIDTH 562 0
DWIDTH 18 0
BBX 4 4 7 8
VVECTOR 9 27
SWIDTH1 0 -1094
DWIDTH1 0 -35
BITMAP 
60
F0
F0
60
ENDCHAR
STARTCHAR radical
ENCODING 299
SWIDTH 688 0
DWIDTH 22 0
BBX 21 26 1 0
VVECTOR 12 27
SWIDTH1 0 -1094
DWIDTH1 0 -35
BITMAP 
0003F8
0003F8
0007F8
000600
000600
000E00
000C00
000C00
001C00
001800
001800
003800
003000
003000
F87000
F86000
FC6000
0CE000
0CC000
0EC000
06C000
078000
078000
038000
030000
030000
ENDCHAR
STARTCHAR uni207F
ENCODING 300
SWIDTH 344 0
DWIDTH 11 0
BBX 11 10 0 7
VVECTOR 6 27
SWIDTH1 0 -1094
DWIDTH1 0 -35
BITMAP 
3380
FFC0
38C0
30C0
30C0
30C0
30C0
30C0
30C0
79E0
ENDCHAR
STARTCHAR uni02C9
ENCODING 301
SWIDTH 344 0
DWIDTH 11 0
BBX 11 2 0 25
VVECTOR 6 27
SWIDTH1 0 -1094
DWIDTH1 0 -35
BITMAP 
FFE0
FFE0
ENDCHAR
STARTCHAR breve
ENCODING 302
SWIDTH 344 0
DWIDTH 11 0
BBX 11 4 0 23
VVECTOR 6 27
SWIDTH1 0 -1094
DWIDTH1 0 -35
BITMAP 
C060
60C0
3F80
0E00
ENDCHAR
STARTCHAR dotaccent
ENCODING 303
SWIDTH 344 0
DWIDTH 11 0
BBX 4 4 3 23
VVECTOR 5 27
SWIDTH1 0 -1094
DWIDTH1 0 -35
BITMAP 
60
F0
F0
60
ENDCHAR
STARTCHAR ring
ENCODING 304
SWIDTH 344 0
DWIDTH 11 0
BBX 7 5 2 22
VVECTOR 6 27
SWIDTH1 0 -1094
DWIDTH1 0 -35
BITMAP 
7C
C6
C6
C6
7C
ENDCHAR
STARTCHAR hungarumlaut
ENCODING 305
SWIDTH 406 0
DWIDTH 13 0
BBX 13 4 0 23
VVECTOR 7 27
SWIDTH1 0 -1094
DWIDTH1 0 -35
BITMAP 
1E78
3CF0
71C0
C300
ENDCHAR
STARTCHAR ogonek
ENCODING 306
SWIDTH 344 0
DWIDTH 11 0
BBX 7 6 2 -6
VVECTOR 6 27
SWIDTH1 0 -1094
DWIDTH1 0 -35
BITMAP 
60
C0
C0
C6
7C
7C
ENDCHAR
STARTCHAR caron
ENCODING 307
SWIDTH 344 0
DWIDTH 11 0
BBX 9 4 1 23
VVECTOR 6 27
SWIDTH1 0 -1094
DWIDTH1 0 -35
BITMAP 
C180
7700
3E00
1C00
ENDCHAR
STARTCHAR quoteleft
ENCODING 308
SWIDTH 344 0
DWIDTH 11 0
BBX 4 7 3 20
VVECTOR 5 27
SWIDTH1 0 -1094
DWIDTH1 0 -35
BITMAP 
30
60
C0
C0
F0
F0
60
ENDCHAR
STARTCHAR quoteright
ENCODING 309
SWIDTH 344 0
DWIDTH 11 0
BBX 4 7 3 20
VVECTOR 5 27
SWIDTH1 0 -1094
DWIDTH1 0 -35
BITMAP 
60
F0
F0
30
30
60
C0
ENDCHAR
STARTCHAR quotedblleft
ENCODING 310
SWIDTH 438 0
DWIDTH 14 0
BBX 9 7 2 20
VVECTOR 6 27
SWIDTH1 0 -1094
DWIDTH1 0 -35
BITMAP 
3180
6300
C600
C600
F780
F780
6300
ENDCHAR
STARTCHAR quotedblright
ENCODING 311
SWIDTH 438 0
DWIDTH 14 0
BBX 9 7 2 20
VVECTOR 6 27
SWIDTH1 0 -1094
DWIDTH1 0 -35
BITMAP 
6300
F780
F780
3180
3180
6300
C600
ENDCHAR
STARTCHAR endash
ENCODING 312
SWIDTH 500 0
DWIDTH 16 0
BBX 15 2 1 7
VVECTOR 9 27
SWIDTH1 0 -1094
DWIDTH1 0 -35
BITMAP 
FFFE
FFFE
ENDCHAR
STARTCHAR emdash
ENCODING 313
SWIDTH 1000 0
DWIDTH 32 0
BBX 22 2 2 7
VVECTOR 10 27
SWIDTH1 0 -1094
DWIDTH1 0 -35
BITMAP 
FFFFFC
FFFFFC
ENDCHAR
STARTCHAR uniFFE5
ENCODING 314
SWIDTH 469 0
DWIDTH 15 0
BBX 11 5 2 22
VVECTOR 8 27
SWIDTH1 0 -1094
DWIDTH1 0 -35
BITMAP 
0E00
1F00
3B80
71C0
C060
ENDCHAR
STARTCHAR dotlessi
ENCODING 315
SWIDTH 531 0
DWIDTH 17 0
BBX 13 3 2 23
VVECTOR 9 27
SWIDTH1 0 -1094
DWIDTH1 0 -35
BITMAP 
3E18
7FF0
C3E0
ENDCHAR
STARTCHAR quotesinglbase
ENCODING 316
SWIDTH 344 0
DWIDTH 11 0
BBX 4 7 3 -3
VVECTOR 5 27
SWIDTH1 0 -1094
DWIDTH1 0 -35
BITMAP 
60
F0
F0
30
30
60
C0
ENDCHAR
STARTCHAR quotedblbase
ENCODING 317
SWIDTH 438 0
DWIDTH 14 0
BBX 9 7 2 -3
VVECTOR 6 27
SWIDTH1 0 -1094
DWIDTH1 0 -35
BITMAP 
6300
F780
F780
3180
3180
6300
C600
ENDCHAR
STARTCHAR ellipsis
ENCODING 318
SWIDTH 1000 0
DWIDTH 32 0
BBX 26 4 3 0
VVECTOR 16 27
SWIDTH1 0 -1094
DWIDTH1 0 -35
BITMAP 
600C0180
F01E03C0
F01E03C0
600C0180
ENDCHAR
STARTCHAR dagger
ENCODING 319
SWIDTH 500 0
DWIDTH 16 0
BBX 13 26 2 -1
VVECTOR 9 27
SWIDTH1 0 -1094
DWIDTH1 0 -35
BITMAP 
0700
0700
0700
0700
0700
FFF8
FFF8
FFF8
0700
0700
0700
0700
0700
0700
0700
0700
0700
0700
0700
0700
0700
0700
0700
0700
0700
0700
ENDCHAR
STARTCHAR daggerdbl
ENCODING 320
SWIDTH 500 0
DWIDTH 16 0
BBX 13 26 2 -1
VVECTOR 9 27
SWIDTH1 0 -1094
DWIDTH1 0 -35
BITMAP 
0700
0700
0700
0700
0700
FFF8
FFF8
FFF8
0700
0700
0700
0700
0700
0700
0700
FFF8
FFF8
FFF8
0700
0700
0700
0700
0700
0700
0700
0700
ENDCHAR
STARTCHAR circumflex
ENCODING 321
SWIDTH 344 0
DWIDTH 11 0
BBX 9 4 1 18
VVECTOR 6 27
SWIDTH1 0 -1094
DWIDTH1 0 -35
BITMAP 
1C00
3600
6300
8080
ENDCHAR
STARTCHAR perthousand
ENCODING 322
SWIDTH 1000 0
DWIDTH 32 0
BBX 31 24 1 -1
VVECTOR 17 27
SWIDTH1 0 -1094
DWIDTH1 0 -35
BITMAP 
0700E000
1C83C000
38FFC000
707D8000
70430000
E0430000
E0460000
E0CC0000
E08C0000
61980000
73300000
1C300000
0061C038
00C720E4
00CE31C6
019C1382
031C1382
03381702
06381702
0C383706
0C382704
1818630C
301CC398
000700E0
ENDCHAR
STARTCHAR Scaron
ENCODING 323
SWIDTH 562 0
DWIDTH 18 0
BBX 14 27 2 0
VVECTOR 9 27
SWIDTH1 0 -1094
DWIDTH1 0 -35
BITMAP 
1020
0CC0
0780
0300
0000
0FC8
3878
7018
7008
F008
F000
F000
7800
7E00
3F80
1FC0
07F0
03F8
00F8
007C
003C
803C
803C
C038
E038
F070
9FC0
ENDCHAR
STARTCHAR guilsinglleft
ENCODING 324
SWIDTH 344 0
DWIDTH 11 0
BBX 7 13 2 5
VVECTOR 6 27
SWIDTH1 0 -1094
DWIDTH1 0 -35
BITMAP 
02
06
0E
1C
38
70
E0
70
38
1C
0E
06
02
ENDCHAR
STARTCHAR OE
ENCODING 325
SWIDTH 906 0
DWIDTH 29 0
BBX 26 22 2 0
VVECTOR 16 27
SWIDTH1 0 -1094
DWIDTH1 0 -35
BITMAP 
03FFFF00
0F1F0300
1C0E0100
380E0100
380E0000
700E0000
700E0000
F00E0200
F00E0200
F00E0600
F00FFE00
F00E0600
F00E0200
F00E0200
F00E0000
700E0000
700E0000
380E0000
380E0040
1C0E00C0
0F1F0380
03FFFF80
ENDCHAR
STARTCHAR tilde
ENCODING 326
SWIDTH 344 0
DWIDTH 11 0
BBX 10 4 1 18
VVECTOR 7 27
SWIDTH1 0 -1094
DWIDTH1 0 -35
BITMAP 
3840
7CC0
CF80
8700
ENDCHAR
STARTCHAR trademark
ENCODING 327
SWIDTH 1000 0
DWIDTH 32 0
BBX 30 10 1 12
VVECTOR 16 27
SWIDTH1 0 -1094
DWIDTH1 0 -35
BITMAP 
FFE7E0FC
FFE7E0FC
FFE3B1B8
0E03B1B8
0E039B38
0E039B38
0E038E38
0E038E38
1F07C47C
1F07C47C
ENDCHAR
STARTCHAR scaron
ENCODING 328
SWIDTH 406 0
DWIDTH 13 0
BBX 10 22 2 0
VVECTOR 8 27
SWIDTH1 0 -1094
DWIDTH1 0 -35
BITMAP 
4080
3300
1E00
0C00
0000
0000
0000
3E80
7180
E080
E080
F000
7000
7C00
1F00
0780
03C0
81C0
81C0
C1C0
F380
9F00
ENDCHAR
STARTCHAR guilsinglright
ENCODING 329
SWIDTH 344 0
DWIDTH 11 0
BBX 7 13 2 5
VVECTOR 6 27
SWIDTH1 0 -1094
DWIDTH1 0 -35
BITMAP 
80
C0
E0
70
38
1C
0E
1C
38
70
E0
C0
80
ENDCHAR
STARTCHAR oe
ENCODING 330
SWIDTH 656 0
DWIDTH 21 0
BBX 18 15 2 0
VVECTOR 12 27
SWIDTH1 0 -1094
DWIDTH1 0 -35
BITMAP 
0F1C00
39FF00
70F380
70E180
E0E1C0
E0E1C0
E0FFC0
E0E000
E0E000
E0E000
E0E000
70F040
70F880
39BF00
1F1E00
ENDCHAR
ENDFONT
